<svg width="32" height="32" viewBox="0 0 32 32" fill="none" xmlns="http://www.w3.org/2000/svg">
<path d="M16 32C24.8366 32 32 24.8366 32 16C32 7.16344 24.8366 0 16 0C7.16344 0 0 7.16344 0 16C0 24.8366 7.16344 32 16 32Z" fill="#FFCC4D"/>
<path d="M15.9999 18.6667C12.7795 18.6667 10.6426 18.2916 7.99995 17.7778C7.39639 17.6613 6.22217 17.7778 6.22217 19.5556C6.22217 23.1111 10.3066 27.5556 15.9999 27.5556C21.6924 27.5556 25.7777 23.1111 25.7777 19.5556C25.7777 17.7778 24.6035 17.6604 23.9999 17.7778C21.3573 18.2916 19.2204 18.6667 15.9999 18.6667Z" fill="#6842C2"/>
<path d="M8 19.5556C8 19.5556 10.6667 20.4444 16 20.4444C21.3333 20.4444 24 19.5556 24 19.5556C24 19.5556 22.2222 24.1111 16 24.1111C9.77778 24.1111 8 19.5556 8 19.5556Z" fill="white"/>
<path d="M23.699 11.4658C23.699 12.9893 22.8652 14.2249 21.8359 14.2249C20.8075 14.2249 19.9728 12.9893 19.9728 11.4658C19.9728 9.94224 20.8066 8.70668 21.8359 8.70668C22.8652 8.70668 23.699 9.94224 23.699 11.4658ZM8.43945 11.4658C8.43945 12.9893 9.27323 14.2249 10.3026 14.2249C11.331 14.2249 12.1657 12.9893 12.1657 11.4658C12.1657 9.94224 11.3319 8.70668 10.3026 8.70668C9.27323 8.70668 8.43945 9.94224 8.43945 11.4658Z" fill="#6842C2"/>
<path d="M30.9734 7.55733C30.8214 7.40977 29.8472 7.80088 28.8614 7.29866C26.8277 6.26221 21.6881 5.26221 18.3423 7.63288C17.9841 7.88621 16.4872 7.92888 16.0686 7.9111C15.6499 7.92977 14.153 7.8871 13.7948 7.63288C10.4499 5.26221 5.31033 6.26221 3.27656 7.29866C2.29078 7.80088 1.31656 7.40977 1.16456 7.55733C0.945 7.76977 0.945 8.62044 1.16544 8.83377C1.38411 9.04621 2.47833 9.29155 2.69611 9.92888C2.91567 10.5671 2.91744 14.336 4.66322 15.6391C6.29789 16.8587 10.1112 17.2258 12.5281 15.8507C14.6366 14.6515 14.5628 12.1271 14.9494 10.6231C15.0872 10.0871 15.4757 9.81688 16.0694 9.81688C16.6632 9.81688 17.0517 10.0871 17.1894 10.6231C17.5761 12.1262 17.5014 14.6515 19.6108 15.8507C22.0277 17.2249 25.841 16.8578 27.4748 15.6391C29.2214 14.3369 29.2232 10.5671 29.4419 9.92888C29.6597 9.29155 30.7539 9.04532 30.9726 8.83377C31.193 8.62044 31.1939 7.76977 30.9734 7.55733ZM13.0232 10.8018C12.9548 11.784 12.7797 13.6702 11.6037 14.3395C10.8828 14.7502 9.94322 15 8.96011 15H8.95922C7.87033 15 6.361 14.6915 5.77078 14.2515C5.033 13.7013 4.75211 11.4364 4.64633 10.5893C4.57878 10.0498 4.39744 8.73155 4.99122 8.52888C5.93344 8.20799 7.24811 7.95732 8.593 7.95732C9.209 7.95732 11.2783 7.99555 12.2863 8.61599C13.1797 9.16444 13.0614 10.2613 13.0232 10.8018ZM27.4926 10.5769C27.3868 11.4249 27.1059 13.7013 26.3681 14.2515C25.7779 14.6915 24.2686 15 23.1797 15H23.1788C22.1948 15 21.2561 14.7502 20.5343 14.3395C19.3583 13.6711 19.1832 11.7964 19.1148 10.8142C19.0774 10.2738 18.9583 9.16888 19.8517 8.62044C20.8606 7.99999 22.929 7.95732 23.545 7.95732C24.8899 7.95732 26.2037 8.20355 27.1468 8.52444C27.7406 8.7271 27.5601 10.0373 27.4926 10.5769Z" fill="#6842C2"/>
</svg>
