<svg width="40" height="40" viewBox="0 0 40 40" fill="none" xmlns="http://www.w3.org/2000/svg">
<path d="M5 6H14C15.5913 6 17.1174 6.65555 18.2426 7.82245C19.3679 8.98934 20 10.572 20 12.2222V34C20 32.7623 19.5259 31.5753 18.682 30.7002C17.8381 29.825 16.6935 29.3333 15.5 29.3333H5V6Z" stroke="white" stroke-width="3" stroke-linecap="round" stroke-linejoin="round"/>
<path d="M35 6H26C24.4087 6 22.8826 6.65555 21.7574 7.82245C20.6321 8.98934 20 10.572 20 12.2222V34C20 32.7623 20.4741 31.5753 21.318 30.7002C22.1619 29.825 23.3065 29.3333 24.5 29.3333H35V6Z" stroke="white" stroke-width="3" stroke-linecap="round" stroke-linejoin="round"/>
</svg>
