<svg width="599" height="352" viewBox="0 0 599 352" fill="none" xmlns="http://www.w3.org/2000/svg">
<path d="M305.753 349.21C306.966 342.846 310.732 337.011 316.02 333.286" stroke="#04D361" stroke-width="0.779" stroke-miterlimit="10"/>
<path d="M305.589 351C305.817 345.686 307.868 332.893 312.719 324.885" stroke="#04D361" stroke-width="0.779" stroke-miterlimit="10"/>
<path d="M305.662 350.343C306.501 340.865 306.428 330.391 304.95 320.986" stroke="#04D361" stroke-width="0.779" stroke-miterlimit="10"/>
<path d="M316.793 330.811L316.793 330.811C316.746 330.894 316.699 330.977 316.652 331.061C315.993 332.226 315.334 333.389 314.522 334.489C314.735 334.418 314.96 334.332 315.194 334.238C315.312 334.191 315.434 334.141 315.558 334.091C315.815 333.986 316.08 333.878 316.331 333.784C316.704 333.645 317.091 333.52 317.452 333.467L317.452 333.467C319.126 333.221 320.835 333.288 322.477 333.502L322.477 333.502C323.758 333.669 325.036 333.923 326.293 334.173C326.701 334.254 327.108 334.335 327.511 334.412C329.171 334.729 330.804 334.992 332.45 335.014L332.45 335.014C333.384 335.027 334.376 334.905 335.214 334.583C336.049 334.261 336.693 333.756 337.019 333.019L337.02 333.018C337.559 331.812 337.004 330.222 335.88 329.287L335.879 329.286C334.766 328.353 333.24 327.982 331.665 327.83L331.665 327.83C331.092 327.774 330.519 327.745 329.932 327.715C329.715 327.704 329.497 327.693 329.276 327.681C328.466 327.635 327.636 327.57 326.814 327.413L326.813 327.412C326.322 327.317 325.837 327.191 325.366 327.065C325.291 327.045 325.217 327.025 325.144 327.005C324.747 326.898 324.361 326.794 323.975 326.706C323.062 326.497 322.206 326.391 321.368 326.554L316.793 330.811ZM316.793 330.811L316.794 330.809M316.793 330.811L316.794 330.809M316.794 330.809C317.915 328.811 319.359 326.945 321.368 326.554L316.794 330.809Z" fill="#04D361" stroke="#04D361"/>
<path d="M312.107 326.007C312.732 325.484 313.324 324.836 313.937 324.143C314.017 324.053 314.096 323.963 314.176 323.872C314.913 323.036 315.687 322.157 316.547 321.472C318.904 319.588 321.759 318.133 324.835 317.895L312.107 326.007ZM312.107 326.007C312.138 325.827 312.185 325.618 312.249 325.381C312.468 324.575 312.856 323.547 313.3 322.485C313.973 320.877 314.75 319.246 315.223 318.253C315.375 317.934 315.496 317.681 315.572 317.515C317.131 314.13 319.537 310.952 322.939 309.999L322.939 309.999C324.383 309.595 325.886 309.611 327.457 309.751C327.993 309.799 328.546 309.862 329.107 309.926C330.153 310.047 331.228 310.17 332.273 310.2L332.275 310.2C332.778 310.212 333.29 310.204 333.79 310.196C334.034 310.192 334.275 310.188 334.51 310.187C335.242 310.182 335.95 310.2 336.645 310.304C338.032 310.513 339.352 311.134 340 312.229L340.001 312.23C340.501 313.07 340.528 314.097 340.185 315.086C339.841 316.077 339.138 316.983 338.257 317.541C336.447 318.688 334.122 318.77 331.841 318.517C331.18 318.444 330.544 318.35 329.899 318.254C329.409 318.182 328.913 318.109 328.397 318.043C327.234 317.895 326.044 317.799 324.836 317.894L312.107 326.007ZM312.085 326.594C312.085 326.594 312.085 326.593 312.085 326.592L312.085 326.594Z" fill="#04D361" stroke="#04D361"/>
<path d="M307.229 311.871L307.229 311.872C307.522 313.665 307.224 315.507 306.662 317.283C306.622 317.41 306.574 317.57 306.518 317.753C306.35 318.313 306.114 319.093 305.824 319.831C305.632 320.319 305.427 320.759 305.218 321.081C305.114 321.242 305.018 321.358 304.935 321.434C304.85 321.511 304.802 321.525 304.793 321.527L304.792 321.527C304.688 321.547 304.477 321.517 304.14 321.349C303.821 321.19 303.464 320.945 303.102 320.659C302.38 320.089 301.702 319.404 301.373 319.061C300.368 318.002 299.568 316.755 299.074 315.392L299.073 315.39C298.495 313.816 298.295 312.134 298.095 310.381C298.091 310.343 298.087 310.304 298.082 310.266C297.889 308.569 297.689 306.807 297.106 305.134L297.106 305.134C296.443 303.239 295.314 301.545 294.232 299.922C293.948 299.496 293.667 299.075 293.399 298.656C292.084 296.604 290.971 294.409 290.988 292.108C291.005 289.802 292.47 287.482 294.57 287.109L294.571 287.109C295.956 286.86 297.429 287.442 298.648 288.367L298.649 288.367C300.372 289.668 301.63 291.57 302.168 293.67C302.491 294.941 302.554 296.264 302.616 297.647L302.618 297.703C302.679 299.05 302.741 300.455 303.079 301.821C303.498 303.534 304.329 305.106 305.126 306.612C305.186 306.727 305.247 306.841 305.307 306.955C306.168 308.589 306.952 310.159 307.229 311.871Z" fill="#04D361" stroke="#04D361"/>
<path d="M305.57 349.448C304.95 341.075 302.798 331.615 298.121 324.648" stroke="#04D361" stroke-width="0.779" stroke-miterlimit="10"/>
<path d="M296.993 318.35L296.993 318.352C297.663 320.22 298.076 322.177 298.421 324.149L298.422 324.151C298.44 324.255 298.472 324.388 298.503 324.52C298.515 324.571 298.526 324.621 298.537 324.669C298.581 324.859 298.62 325.052 298.642 325.236C298.663 325.424 298.662 325.573 298.64 325.681C298.62 325.784 298.589 325.81 298.58 325.816L298.58 325.816C298.576 325.82 298.539 325.846 298.411 325.827C298.282 325.808 298.116 325.749 297.925 325.65C297.546 325.456 297.175 325.165 296.987 324.998C296.651 324.69 296.353 324.333 296.054 323.946C295.949 323.809 295.839 323.663 295.728 323.514C295.535 323.258 295.336 322.991 295.135 322.744L295.135 322.743C292.423 319.409 288.14 317.806 284.003 317.213C281.933 316.916 279.851 316.838 277.785 316.805C277.239 316.797 276.695 316.791 276.153 316.785C274.634 316.769 273.128 316.754 271.622 316.67L271.619 316.67C270.682 316.624 269.838 316.522 269.213 316.078C268.397 315.494 268.057 314.299 268.307 313.209C268.556 312.131 269.299 311.177 270.215 310.39L270.215 310.39C272.238 308.651 274.925 307.774 277.636 307.597C280.348 307.419 283.087 307.907 285.762 308.631L285.762 308.631C288.34 309.328 290.853 310.264 292.829 311.927C294.782 313.578 296.118 315.883 296.993 318.35Z" fill="#04D361" stroke="#04D361"/>
<path d="M305.397 350.343C305.033 343.038 301.75 335.915 296.443 330.893" stroke="#04D361" stroke-width="0.779" stroke-miterlimit="10"/>
<path d="M293.663 327.061C291.828 326.085 289.75 325.449 287.7 324.874L293.663 327.061ZM293.663 327.061C293.802 327.135 293.927 327.202 294.052 327.277L294.051 327.277L294.063 327.284C294.861 327.735 295.393 328.52 295.979 329.414C296.046 329.517 296.15 329.726 296.29 330.028C296.333 330.119 296.378 330.218 296.425 330.32C296.524 330.536 296.631 330.77 296.74 330.996C296.773 331.065 296.807 331.135 296.841 331.204C294.373 330.528 291.657 330.553 289.281 330.576L289.253 330.576C289.253 330.576 289.253 330.576 289.253 330.576M293.663 327.061L289.253 330.576M289.253 330.576C286.003 330.604 282.752 331.208 279.713 332.381L279.711 332.382C279.308 332.539 278.915 332.702 278.527 332.863C277.049 333.477 275.655 334.055 274.149 334.138C273.65 334.162 273.118 334.09 272.689 333.909C272.265 333.729 271.983 333.462 271.872 333.11C271.696 332.534 272 331.853 272.515 331.166L272.515 331.166M289.253 330.576L272.515 331.166M272.515 331.166L272.516 331.164M272.515 331.166L272.516 331.164M272.516 331.164C273.534 329.793 274.848 328.669 276.205 327.512M272.516 331.164L276.205 327.512M276.205 327.512C277.974 326.008 279.727 324.562 281.83 324.153L276.205 327.512ZM297.511 331.408C297.296 331.019 297.077 330.542 296.882 330.117C296.688 329.696 296.518 329.325 296.397 329.14C295.823 328.264 295.23 327.369 294.309 326.848C294.172 326.766 294.036 326.693 293.899 326.62L297.511 331.408ZM281.83 324.153C283.719 323.786 285.692 324.311 287.7 324.874L281.83 324.153Z" fill="#04D361" stroke="#04D361"/>
<path d="M527.582 320.671L527.582 320.672C526.511 321.733 525.19 322.346 523.884 322.858C523.565 322.984 523.248 323.103 522.935 323.22C521.942 323.593 520.987 323.952 520.1 324.458C517.596 325.89 515.788 328.472 514.701 331.246C514.688 331.279 514.675 331.312 514.662 331.345C514.255 332.391 513.668 333.894 513.343 335.367C513.176 336.127 513.083 336.857 513.113 337.497C513.143 338.139 513.294 338.649 513.574 339.014L513.576 339.016C514.21 339.851 515.327 340.025 516.712 339.797C518.075 339.571 519.507 338.983 520.543 338.547L520.544 338.547C520.923 338.388 521.307 338.221 521.696 338.051C523.704 337.177 525.835 336.249 528.055 336.153C530.458 336.047 532.706 336.914 534.765 337.741L534.821 337.763C536.891 338.594 538.907 339.403 541.046 339.412C543.19 339.421 545.479 338.399 546.453 336.506C546.862 335.705 547.028 334.806 547.208 333.832C547.241 333.655 547.274 333.476 547.309 333.294C547.53 332.152 547.83 330.932 548.706 329.962L548.707 329.962C549.605 328.968 550.785 328.568 551.978 328.401C552.836 328.281 553.754 328.277 554.608 328.273C554.92 328.272 555.223 328.27 555.512 328.263L555.513 328.263C557.912 328.21 560.378 327.563 562.233 326.006L562.234 326.005C564.098 324.45 565.189 321.872 564.599 319.728L564.598 319.728C564.11 317.953 562.627 316.687 561.055 315.419L561.055 315.418C558.888 313.665 556.62 311.992 554.009 312.168C553.079 312.235 552.162 312.534 551.175 312.856L551.102 312.88C550.11 313.204 549.044 313.545 547.937 313.585C546.54 313.634 545.277 313.207 544.116 312.615C543.236 312.165 542.383 311.603 541.572 311.068C541.326 310.906 541.084 310.746 540.846 310.592C538.757 309.246 536.312 308.266 534.204 309.28L527.582 320.671ZM527.582 320.671C529.089 319.17 529.766 317.087 530.381 315.192M527.582 320.671L530.381 315.192M530.381 315.192C530.468 314.925 530.553 314.661 530.64 314.404M530.381 315.192L530.64 314.404M530.64 314.404C531.36 312.259 532.383 310.159 534.203 309.28L530.64 314.404Z" fill="#04D361" stroke="#04D361"/>
<path d="M513.615 339.072C525.752 328.635 539.913 321.723 555.196 318.783" stroke="white" stroke-width="0.7047" stroke-miterlimit="10" stroke-linecap="round" stroke-linejoin="round"/>
<path d="M525.615 323.02C525.898 319.577 525.251 315.989 526.381 312.729C528.396 306.921 535.381 303.89 537.132 298C539.229 290.96 532.828 283.774 533.941 276.515C534.406 273.456 536.166 270.762 537.26 267.868C538.354 264.973 538.637 261.348 536.512 259.093C534.287 256.737 530.248 257.011 527.603 258.892C524.959 260.773 523.436 263.823 522.196 266.827C520.965 269.831 519.88 272.972 517.792 275.465C513.989 280.003 507.15 281.994 505.071 287.536C502.956 293.179 506.959 299.151 507.67 305.132C508.208 309.661 506.831 314.172 505.6 318.573C504.378 322.974 503.293 327.631 504.415 332.05C505.91 337.94 511.208 341.693 516.287 337.912C521.311 334.196 525.096 329.493 525.615 323.02Z" fill="#04D361"/>
<path d="M513.068 339.355C511.053 318.335 515.667 295.535 526.445 277.382" stroke="white" stroke-width="1.1364" stroke-miterlimit="10" stroke-linecap="round" stroke-linejoin="round"/>
<path d="M499.646 331.429C497.43 328.297 496.162 324.38 493.153 321.997C489.706 319.257 484.928 319.23 480.551 318.874C476.165 318.518 471.223 317.276 469.19 313.368C468.077 311.222 468.077 308.675 467.302 306.392C466.445 303.881 464.694 301.799 463.463 299.452C462.241 297.106 461.594 294.12 463.016 291.883C464.457 289.618 467.612 288.951 470.193 289.682C472.773 290.412 474.889 292.23 476.822 294.092C478.755 295.955 480.643 297.946 483.023 299.169C486.971 301.187 491.658 300.813 496.089 300.621C500.521 300.438 505.354 300.621 508.783 303.452C511.6 305.78 512.886 309.442 514.035 312.921C515.694 317.897 517.39 322.855 519.004 327.85C519.998 330.918 521.895 335.62 518.704 338.031C513.077 342.277 502.892 336.004 499.646 331.429Z" fill="#04D361"/>
<path d="M516.925 338.214C509.886 321.851 494.986 307.917 477.15 301.772" stroke="white" stroke-width="0.8174" stroke-miterlimit="10" stroke-linecap="round" stroke-linejoin="round"/>
<path d="M111.359 337.462C113.374 334.458 114.541 330.605 117.249 328.404C120.359 325.893 124.635 326.222 128.574 326.176C132.505 326.14 136.945 325.254 138.805 321.455C139.827 319.374 139.836 316.799 140.556 314.543C141.34 312.069 142.927 310.096 144.049 307.814C145.161 305.531 145.763 302.563 144.514 300.198C143.237 297.806 140.419 296.902 138.103 297.45C135.787 297.998 133.872 299.678 132.131 301.413C130.389 303.148 128.684 305.02 126.532 306.079C122.976 307.832 118.781 307.101 114.805 306.581C110.83 306.07 106.498 305.905 103.407 308.508C100.863 310.653 99.6868 314.26 98.6199 317.684C97.0971 322.588 95.5378 327.473 94.0515 332.395C93.1396 335.426 91.398 340.028 94.243 342.703C99.2308 347.433 108.413 341.845 111.359 337.462Z" fill="#04D361"/>
<path d="M95.8204 343.05C102.258 327.035 115.717 314.059 131.748 309.156" stroke="white" stroke-width="0.7781" stroke-miterlimit="10" stroke-linecap="round" stroke-linejoin="round"/>
<path d="M86.9937 329.053C86.7749 325.884 87.2855 322.588 86.3828 319.584C84.7688 314.242 79.17 311.457 77.7657 306.042C76.0879 299.568 81.2125 292.957 80.328 286.274C79.9542 283.461 78.5408 280.987 77.6654 278.32C76.79 275.654 76.5621 272.321 78.2672 270.249C80.0545 268.075 83.2825 268.331 85.4071 270.066C87.5226 271.801 88.7445 274.604 89.7384 277.362C90.7232 280.119 91.5986 283.014 93.2673 285.306C96.3129 289.479 101.793 291.305 103.453 296.409C105.149 301.605 101.939 307.092 101.374 312.598C100.945 316.771 102.048 320.917 103.033 324.962C104.018 329.007 104.884 333.289 103.982 337.362C102.787 342.777 98.5378 346.228 94.4709 342.758C90.4496 339.334 87.4132 335.006 86.9937 329.053Z" fill="#04D361"/>
<path d="M97.0423 344.073C98.6563 324.743 94.9542 303.769 86.328 287.068" stroke="white" stroke-width="0.9754" stroke-miterlimit="10" stroke-linecap="round" stroke-linejoin="round"/>
<path d="M35.2001 313.594C34.4615 316.762 35.9934 320.588 38.4098 322.962C40.8263 325.345 43.963 326.45 46.9448 326.715L54.7503 329.29L55.1443 328.982C55.1442 328.982 55.1441 328.982 55.144 328.982C54.0833 327.624 52.6907 326.998 51.2498 326.679C50.2109 326.449 49.1019 326.371 48.0674 326.299C47.6964 326.273 47.3351 326.248 46.99 326.217L46.989 326.217C44.0938 325.96 41.076 324.889 38.7609 322.606L38.7602 322.605C36.4324 320.318 34.9983 316.662 35.687 313.707M35.2001 313.594L35.6869 313.708C35.6869 313.708 35.6869 313.708 35.687 313.707M35.2001 313.594L35.687 313.707C35.687 313.707 35.687 313.707 35.687 313.707M35.2001 313.594C35.811 310.991 37.7351 309.275 39.5679 307.713C42.112 305.54 44.9843 303.266 48.4038 303.75C49.608 303.919 50.7886 304.423 51.9675 304.927C53.2166 305.46 54.4638 305.993 55.7351 306.124M35.687 313.707C36.2557 311.286 38.0473 309.666 39.8921 308.094L39.8926 308.093C42.4677 305.894 45.1705 303.798 48.3337 304.245L48.3345 304.246C49.4717 304.405 50.5983 304.886 51.8004 305.399L51.8766 305.432C53.0787 305.945 54.3604 306.485 55.6836 306.622M55.6836 306.622L55.7351 306.124M55.6836 306.622C57.3557 306.795 58.8621 306.318 60.2444 305.609C61.292 305.072 62.3029 304.382 63.2673 303.723C63.5615 303.523 63.8514 303.325 64.1367 303.135L64.1377 303.134C66.6181 301.475 69.5593 300.325 72.1756 301.879M55.6836 306.622C55.6836 306.622 55.6836 306.622 55.6837 306.622L55.7351 306.124M55.7351 306.124C58.4512 306.406 60.7495 304.837 62.9669 303.323C63.2657 303.119 63.5631 302.916 63.8598 302.719C66.3583 301.048 69.5406 299.733 72.4312 301.449M72.1756 301.879C72.1754 301.879 72.1751 301.879 72.1749 301.879L72.4312 301.449M72.1756 301.879C73.3056 302.554 74.207 303.636 74.9435 304.94C75.6795 306.243 76.2346 307.738 76.686 309.203L76.6864 309.204C76.7997 309.568 76.9115 309.939 77.0244 310.313C77.8118 312.923 78.6555 315.719 80.47 317.811M72.1756 301.879C72.1757 301.879 72.1758 301.879 72.1759 301.879L72.4312 301.449M72.4312 301.449C74.8932 302.919 76.2519 306.097 77.1638 309.056L80.47 317.811M80.47 317.811C81.7582 319.303 83.3399 320.222 84.927 321.015C85.3151 321.209 85.7009 321.394 86.0832 321.578C87.2876 322.156 88.4563 322.718 89.5443 323.473L89.5449 323.474C92.646 325.62 94.9129 329.293 96.2977 333.165C96.3159 333.216 96.3345 333.268 96.3534 333.321C96.8658 334.759 97.6075 336.839 98.036 338.867C98.258 339.918 98.3914 340.934 98.3705 341.825C98.3496 342.722 98.1733 343.441 97.8256 343.944L97.8244 343.946C97.0647 345.054 95.7107 345.2 94.0268 344.783C92.3665 344.372 90.6132 343.462 89.3529 342.792L89.3526 342.791C88.9004 342.551 88.4421 342.301 87.9795 342.048C86.9796 341.501 85.9599 340.943 84.9404 340.461C83.4397 339.75 81.885 339.175 80.2748 338.992L80.2747 338.992C77.391 338.666 74.7013 339.658 72.2398 340.622L72.1666 340.65C69.6995 341.617 67.292 342.56 64.7029 342.396C62.11 342.232 59.2544 340.675 57.9852 337.937L80.47 317.811ZM80.47 317.811L80.8477 317.483L80.4692 317.81C80.4695 317.811 80.4697 317.811 80.47 317.811ZM89.1182 343.233C88.6538 342.987 88.1889 342.732 87.723 342.478C85.2712 341.136 82.7931 339.781 80.2185 339.489C77.4738 339.179 74.8932 340.119 72.4221 341.087L72.3033 341.134C69.8697 342.087 67.3721 343.066 64.6713 342.895C61.9266 342.722 58.8902 341.078 57.5315 338.147L89.1182 343.233ZM89.1182 343.233C91.6258 344.566 96.3401 346.995 98.2368 344.228L89.1182 343.233Z" fill="#04D361" stroke="#04D361"/>
<path d="M97.6989 343.854C82.8265 328.824 65.5833 318.397 47.0908 313.247" stroke="white" stroke-width="0.8986" stroke-miterlimit="10" stroke-linecap="round" stroke-linejoin="round"/>
<path d="M523.847 71.5967C523.847 74.4912 521.504 76.8379 518.613 76.8379C515.723 76.8379 513.379 74.4912 513.379 71.5967C513.379 68.7021 515.723 66.3554 518.613 66.3554C521.495 66.3554 523.847 68.7021 523.847 71.5967Z" stroke="#04D361" stroke-width="2" stroke-miterlimit="10" stroke-linecap="round" stroke-linejoin="round"/>
<path d="M522.397 75.2126L526.09 78.9192" stroke="#04D361" stroke-width="2" stroke-miterlimit="10" stroke-linecap="round" stroke-linejoin="round"/>
<path d="M319.068 1L324.575 6.51422" stroke="#04D361" stroke-width="2" stroke-miterlimit="10" stroke-linecap="round" stroke-linejoin="round"/>
<path d="M324.575 1L319.068 6.51422" stroke="#04D361" stroke-width="2" stroke-miterlimit="10" stroke-linecap="round" stroke-linejoin="round"/>
<path d="M397.995 318.459L403.501 323.974" stroke="#04D361" stroke-width="2" stroke-miterlimit="10" stroke-linecap="round" stroke-linejoin="round"/>
<path d="M403.501 318.459L397.995 323.974" stroke="#04D361" stroke-width="2" stroke-miterlimit="10" stroke-linecap="round" stroke-linejoin="round"/>
<path d="M48.5352 245.386V253.184" stroke="#04D361" stroke-width="2" stroke-miterlimit="10" stroke-linecap="round" stroke-linejoin="round"/>
<path d="M52.4387 249.284H44.6423" stroke="#04D361" stroke-width="2" stroke-miterlimit="10" stroke-linecap="round" stroke-linejoin="round"/>
<path d="M31.5993 185.515C31.5993 188.126 29.4838 190.254 26.8668 190.254C24.2588 190.254 22.1342 188.135 22.1342 185.515C22.1342 182.903 24.2497 180.776 26.8668 180.776C29.4838 180.785 31.5993 182.903 31.5993 185.515Z" stroke="#04D361" stroke-width="2" stroke-miterlimit="10" stroke-linecap="round" stroke-linejoin="round"/>
<path d="M228.027 300.134C228.027 302.746 225.911 304.873 223.294 304.873C220.687 304.873 218.562 302.755 218.562 300.134C218.562 297.523 220.677 295.395 223.294 295.395C225.911 295.404 228.027 297.523 228.027 300.134Z" stroke="#04D361" stroke-width="2" stroke-miterlimit="10" stroke-linecap="round" stroke-linejoin="round"/>
<path d="M540.339 214.786C540.339 217.398 538.224 219.525 535.607 219.525C532.999 219.525 530.874 217.407 530.874 214.786C530.874 212.175 532.99 210.047 535.607 210.047C538.224 210.056 540.339 212.175 540.339 214.786Z" stroke="#04D361" stroke-width="2" stroke-miterlimit="10" stroke-linecap="round" stroke-linejoin="round"/>
<path d="M2.928 102.464C2.928 103.137 2.38383 103.68 1.714 103.68C1.04417 103.68 0.5 103.137 0.5 102.464C0.5 101.792 1.04417 101.248 1.714 101.248C2.38383 101.248 2.928 101.792 2.928 102.464Z" fill="#9871F5" stroke="#9871F5"/>
<path d="M14.9008 102.464C14.9008 103.137 14.3566 103.68 13.6868 103.68C13.0169 103.68 12.4728 103.137 12.4728 102.464C12.4728 101.792 13.017 101.248 13.6868 101.248C14.3566 101.248 14.9008 101.792 14.9008 102.464Z" fill="#9871F5" stroke="#9871F5"/>
<path d="M26.8644 102.464C26.8644 103.137 26.3202 103.68 25.6504 103.68C24.9806 103.68 24.4364 103.137 24.4364 102.464C24.4364 101.792 24.9806 101.248 25.6504 101.248C26.3202 101.248 26.8644 101.792 26.8644 102.464Z" fill="#9871F5" stroke="#9871F5"/>
<path d="M38.8371 102.464C38.8371 103.137 38.2929 103.68 37.6231 103.68C36.9532 103.68 36.4091 103.137 36.4091 102.464C36.4091 101.792 36.9532 101.248 37.6231 101.248C38.2929 101.248 38.8371 101.792 38.8371 102.464Z" fill="#9871F5" stroke="#9871F5"/>
<path d="M50.8006 102.464C50.8006 103.137 50.2564 103.68 49.5866 103.68C48.9168 103.68 48.3726 103.137 48.3726 102.464C48.3726 101.792 48.9168 101.248 49.5866 101.248C50.2564 101.248 50.8006 101.792 50.8006 102.464Z" fill="#9871F5" stroke="#9871F5"/>
<path d="M62.7732 102.464C62.7732 103.137 62.229 103.68 61.5592 103.68C60.8894 103.68 60.3452 103.137 60.3452 102.464C60.3452 101.792 60.8894 101.248 61.5592 101.248C62.229 101.248 62.7732 101.792 62.7732 102.464Z" fill="#9871F5" stroke="#9871F5"/>
<path d="M2.928 114.444C2.928 115.117 2.38383 115.66 1.714 115.66C1.04417 115.66 0.5 115.117 0.5 114.444C0.5 113.772 1.04417 113.228 1.714 113.228C2.38383 113.228 2.928 113.772 2.928 114.444Z" fill="#9871F5" stroke="#9871F5"/>
<path d="M14.9008 114.444C14.9008 115.117 14.3566 115.66 13.6868 115.66C13.0169 115.66 12.4728 115.117 12.4728 114.444C12.4728 113.772 13.0169 113.228 13.6868 113.228C14.3566 113.228 14.9008 113.772 14.9008 114.444Z" fill="#9871F5" stroke="#9871F5"/>
<path d="M26.8644 114.444C26.8644 115.117 26.3202 115.66 25.6504 115.66C24.9806 115.66 24.4364 115.117 24.4364 114.444C24.4364 113.772 24.9806 113.228 25.6504 113.228C26.3202 113.228 26.8644 113.772 26.8644 114.444Z" fill="#9871F5" stroke="#9871F5"/>
<path d="M38.8371 114.444C38.8371 115.117 38.2929 115.66 37.6231 115.66C36.9532 115.66 36.4091 115.117 36.4091 114.444C36.4091 113.772 36.9532 113.228 37.6231 113.228C38.2929 113.228 38.8371 113.772 38.8371 114.444Z" fill="#9871F5" stroke="#9871F5"/>
<path d="M50.8006 114.444C50.8006 115.117 50.2564 115.66 49.5866 115.66C48.9168 115.66 48.3726 115.117 48.3726 114.444C48.3726 113.772 48.9168 113.228 49.5866 113.228C50.2564 113.228 50.8006 113.772 50.8006 114.444Z" fill="#9871F5" stroke="#9871F5"/>
<path d="M62.7732 114.444C62.7732 115.117 62.229 115.66 61.5592 115.66C60.8894 115.66 60.3452 115.117 60.3452 114.444C60.3452 113.772 60.8894 113.228 61.5592 113.228C62.229 113.228 62.7732 113.772 62.7732 114.444Z" fill="#9871F5" stroke="#9871F5"/>
<path d="M2.928 126.433C2.928 127.106 2.38383 127.65 1.714 127.65C1.04417 127.65 0.5 127.106 0.5 126.433C0.5 125.761 1.04417 125.217 1.714 125.217C2.38383 125.217 2.928 125.761 2.928 126.433Z" fill="#9871F5" stroke="#9871F5"/>
<path d="M14.9008 126.433C14.9008 127.106 14.3566 127.65 13.6868 127.65C13.0169 127.65 12.4728 127.106 12.4728 126.433C12.4728 125.761 13.017 125.217 13.6868 125.217C14.3566 125.217 14.9008 125.761 14.9008 126.433Z" fill="#9871F5" stroke="#9871F5"/>
<path d="M26.8644 126.433C26.8644 127.106 26.3202 127.65 25.6504 127.65C24.9806 127.65 24.4364 127.106 24.4364 126.433C24.4364 125.761 24.9806 125.217 25.6504 125.217C26.3202 125.217 26.8644 125.761 26.8644 126.433Z" fill="#9871F5" stroke="#9871F5"/>
<path d="M38.8371 126.433C38.8371 127.106 38.2929 127.65 37.6231 127.65C36.9532 127.65 36.4091 127.106 36.4091 126.433C36.4091 125.761 36.9532 125.217 37.6231 125.217C38.2929 125.217 38.8371 125.761 38.8371 126.433Z" fill="#9871F5" stroke="#9871F5"/>
<path d="M50.8006 126.433C50.8006 127.106 50.2564 127.65 49.5866 127.65C48.9168 127.65 48.3726 127.106 48.3726 126.433C48.3726 125.761 48.9168 125.217 49.5866 125.217C50.2564 125.217 50.8006 125.761 50.8006 126.433Z" fill="#9871F5" stroke="#9871F5"/>
<path d="M62.7732 126.433C62.7732 127.106 62.229 127.65 61.5592 127.65C60.8894 127.65 60.3452 127.106 60.3452 126.433C60.3452 125.761 60.8894 125.217 61.5592 125.217C62.229 125.217 62.7732 125.761 62.7732 126.433Z" fill="#9871F5" stroke="#9871F5"/>
<path d="M2.928 138.413C2.928 139.086 2.38383 139.63 1.714 139.63C1.04417 139.63 0.5 139.086 0.5 138.413C0.5 137.741 1.04417 137.197 1.714 137.197C2.38383 137.197 2.928 137.741 2.928 138.413Z" fill="#9871F5" stroke="#9871F5"/>
<path d="M14.9008 138.413C14.9008 139.086 14.3566 139.63 13.6868 139.63C13.017 139.63 12.4728 139.086 12.4728 138.413C12.4728 137.741 13.017 137.197 13.6868 137.197C14.3566 137.197 14.9008 137.741 14.9008 138.413Z" fill="#9871F5" stroke="#9871F5"/>
<path d="M26.8644 138.413C26.8644 139.086 26.3202 139.63 25.6504 139.63C24.9806 139.63 24.4364 139.086 24.4364 138.413C24.4364 137.741 24.9806 137.197 25.6504 137.197C26.3202 137.197 26.8644 137.741 26.8644 138.413Z" fill="#9871F5" stroke="#9871F5"/>
<path d="M38.8371 138.413C38.8371 139.086 38.2929 139.63 37.6231 139.63C36.9532 139.63 36.4091 139.086 36.4091 138.413C36.4091 137.741 36.9532 137.197 37.6231 137.197C38.2929 137.197 38.8371 137.741 38.8371 138.413Z" fill="#9871F5" stroke="#9871F5"/>
<path d="M50.8006 138.413C50.8006 139.086 50.2564 139.63 49.5866 139.63C48.9168 139.63 48.3726 139.086 48.3726 138.413C48.3726 137.741 48.9168 137.197 49.5866 137.197C50.2564 137.197 50.8006 137.741 50.8006 138.413Z" fill="#9871F5" stroke="#9871F5"/>
<path d="M62.7732 138.413C62.7732 139.086 62.229 139.63 61.5592 139.63C60.8894 139.63 60.3452 139.086 60.3452 138.413C60.3452 137.741 60.8894 137.197 61.5592 137.197C62.229 137.197 62.7732 137.741 62.7732 138.413Z" fill="#9871F5" stroke="#9871F5"/>
<path d="M187.624 328.189C187.624 328.862 187.08 329.406 186.41 329.406C185.74 329.406 185.196 328.862 185.196 328.189C185.196 327.517 185.74 326.973 186.41 326.973C187.08 326.973 187.624 327.517 187.624 328.189Z" fill="#9871F5" stroke="#9871F5"/>
<path d="M199.596 328.189C199.596 328.862 199.052 329.406 198.382 329.406C197.713 329.406 197.168 328.862 197.168 328.189C197.168 327.517 197.713 326.973 198.382 326.973C199.052 326.973 199.596 327.517 199.596 328.189Z" fill="#9871F5" stroke="#9871F5"/>
<path d="M211.56 328.189C211.56 328.862 211.016 329.406 210.346 329.406C209.676 329.406 209.132 328.862 209.132 328.189C209.132 327.517 209.676 326.973 210.346 326.973C211.016 326.973 211.56 327.517 211.56 328.189Z" fill="#9871F5" stroke="#9871F5"/>
<path d="M223.533 328.189C223.533 328.862 222.988 329.406 222.319 329.406C221.649 329.406 221.105 328.862 221.105 328.189C221.105 327.517 221.649 326.973 222.319 326.973C222.988 326.973 223.533 327.517 223.533 328.189Z" fill="#9871F5" stroke="#9871F5"/>
<path d="M235.496 328.189C235.496 328.862 234.952 329.406 234.282 329.406C233.612 329.406 233.068 328.862 233.068 328.189C233.068 327.517 233.612 326.973 234.282 326.973C234.952 326.973 235.496 327.517 235.496 328.189Z" fill="#9871F5" stroke="#9871F5"/>
<path d="M187.624 340.178C187.624 340.851 187.08 341.395 186.41 341.395C185.74 341.395 185.196 340.851 185.196 340.178C185.196 339.506 185.74 338.962 186.41 338.962C187.08 338.962 187.624 339.506 187.624 340.178Z" fill="#9871F5" stroke="#9871F5"/>
<path d="M199.596 340.178C199.596 340.851 199.052 341.395 198.382 341.395C197.713 341.395 197.168 340.851 197.168 340.178C197.168 339.506 197.713 338.962 198.382 338.962C199.052 338.962 199.596 339.506 199.596 340.178Z" fill="#9871F5" stroke="#9871F5"/>
<path d="M211.56 340.178C211.56 340.851 211.016 341.395 210.346 341.395C209.676 341.395 209.132 340.851 209.132 340.178C209.132 339.506 209.676 338.962 210.346 338.962C211.016 338.962 211.56 339.506 211.56 340.178Z" fill="#9871F5" stroke="#9871F5"/>
<path d="M223.533 340.178C223.533 340.851 222.988 341.395 222.319 341.395C221.649 341.395 221.105 340.851 221.105 340.178C221.105 339.506 221.649 338.962 222.319 338.962C222.988 338.962 223.533 339.506 223.533 340.178Z" fill="#9871F5" stroke="#9871F5"/>
<path d="M235.496 340.178C235.496 340.851 234.952 341.395 234.282 341.395C233.612 341.395 233.068 340.851 233.068 340.178C233.068 339.506 233.612 338.962 234.282 338.962C234.952 338.962 235.496 339.506 235.496 340.178Z" fill="#9871F5" stroke="#9871F5"/>
<path d="M490.93 28.3976C490.93 29.0701 490.386 29.614 489.716 29.614C489.046 29.614 488.502 29.0701 488.502 28.3976C488.502 27.7252 489.046 27.1813 489.716 27.1813C490.386 27.1813 490.93 27.7252 490.93 28.3976Z" fill="#9871F5" stroke="#9871F5"/>
<path d="M502.894 28.3976C502.894 29.0701 502.35 29.614 501.68 29.614C501.01 29.614 500.466 29.0701 500.466 28.3976C500.466 27.7252 501.01 27.1813 501.68 27.1813C502.35 27.1813 502.894 27.7252 502.894 28.3976Z" fill="#9871F5" stroke="#9871F5"/>
<path d="M514.866 28.3976C514.866 29.0701 514.322 29.614 513.652 29.614C512.983 29.614 512.438 29.0701 512.438 28.3976C512.438 27.7252 512.983 27.1813 513.652 27.1813C514.322 27.1813 514.866 27.7252 514.866 28.3976Z" fill="#9871F5" stroke="#9871F5"/>
<path d="M490.93 40.3867C490.93 41.0592 490.386 41.6031 489.716 41.6031C489.046 41.6031 488.502 41.0591 488.502 40.3867C488.502 39.7143 489.046 39.1704 489.716 39.1704C490.386 39.1704 490.93 39.7143 490.93 40.3867Z" fill="#9871F5" stroke="#9871F5"/>
<path d="M502.894 40.3868C502.894 41.0592 502.35 41.6031 501.68 41.6031C501.01 41.6031 500.466 41.0592 500.466 40.3868C500.466 39.7143 501.01 39.1704 501.68 39.1704C502.35 39.1704 502.894 39.7143 502.894 40.3868Z" fill="#9871F5" stroke="#9871F5"/>
<path d="M514.866 40.3868C514.866 41.0592 514.322 41.6031 513.652 41.6031C512.983 41.6031 512.438 41.0592 512.438 40.3868C512.438 39.7143 512.983 39.1704 513.652 39.1704C514.322 39.1704 514.866 39.7143 514.866 40.3868Z" fill="#9871F5" stroke="#9871F5"/>
<path d="M177.582 5.71634C177.582 6.38877 177.038 6.93268 176.368 6.93268C175.698 6.93268 175.154 6.38875 175.154 5.71634C175.154 5.04394 175.698 4.5 176.368 4.5C177.038 4.5 177.582 5.04392 177.582 5.71634Z" fill="#9871F5" stroke="#9871F5"/>
<path d="M189.546 5.71634C189.546 6.38875 189.002 6.93268 188.332 6.93268C187.662 6.93268 187.118 6.38875 187.118 5.71634C187.118 5.04393 187.662 4.5 188.332 4.5C189.002 4.5 189.546 5.04393 189.546 5.71634Z" fill="#9871F5" stroke="#9871F5"/>
<path d="M201.518 5.71634C201.518 6.38878 200.974 6.93268 200.304 6.93268C199.635 6.93268 199.09 6.38875 199.09 5.71634C199.09 5.04393 199.635 4.5 200.304 4.5C200.974 4.5 201.518 5.04391 201.518 5.71634Z" fill="#9871F5" stroke="#9871F5"/>
<path d="M177.582 17.7054C177.582 18.3778 177.038 18.9218 176.368 18.9218C175.698 18.9218 175.154 18.3778 175.154 17.7054C175.154 17.033 175.698 16.4891 176.368 16.4891C177.038 16.4891 177.582 17.033 177.582 17.7054Z" fill="#9871F5" stroke="#9871F5"/>
<path d="M189.546 17.7054C189.546 18.3779 189.001 18.9218 188.332 18.9218C187.662 18.9218 187.118 18.3779 187.118 17.7054C187.118 17.033 187.662 16.4891 188.332 16.4891C189.002 16.4891 189.546 17.033 189.546 17.7054Z" fill="#9871F5" stroke="#9871F5"/>
<path d="M201.518 17.7054C201.518 18.3779 200.974 18.9218 200.304 18.9218C199.635 18.9218 199.09 18.3779 199.09 17.7054C199.09 17.033 199.635 16.4891 200.304 16.4891C200.974 16.4891 201.518 17.033 201.518 17.7054Z" fill="#9871F5" stroke="#9871F5"/>
<path d="M598.5 190.4C598.5 191.072 597.956 191.616 597.286 191.616C596.616 191.616 596.072 191.072 596.072 190.4C596.072 189.728 596.616 189.184 597.286 189.184C597.956 189.184 598.5 189.728 598.5 190.4Z" fill="#9871F5" stroke="#9871F5"/>
<path d="M598.5 202.389C598.5 203.061 597.956 203.605 597.286 203.605C596.616 203.605 596.072 203.061 596.072 202.389C596.072 201.717 596.616 201.173 597.286 201.173C597.956 201.173 598.5 201.717 598.5 202.389Z" fill="#9871F5" stroke="#9871F5"/>
<path d="M598.5 214.369C598.5 215.041 597.956 215.585 597.286 215.585C596.616 215.585 596.072 215.041 596.072 214.369C596.072 213.697 596.616 213.153 597.286 213.153C597.956 213.153 598.5 213.697 598.5 214.369Z" fill="#9871F5" stroke="#9871F5"/>
<path d="M598.5 226.358C598.5 227.031 597.956 227.574 597.286 227.574C596.616 227.574 596.072 227.031 596.072 226.358C596.072 225.686 596.616 225.142 597.286 225.142C597.956 225.142 598.5 225.686 598.5 226.358Z" fill="#9871F5" stroke="#9871F5"/>
<path d="M598.5 238.338C598.5 239.011 597.956 239.554 597.286 239.554C596.616 239.554 596.072 239.011 596.072 238.338C596.072 237.666 596.616 237.122 597.286 237.122C597.956 237.122 598.5 237.666 598.5 238.338Z" fill="#9871F5" stroke="#9871F5"/>
<path d="M598.5 250.327C598.5 251 597.956 251.544 597.286 251.544C596.616 251.544 596.072 251 596.072 250.327C596.072 249.655 596.616 249.111 597.286 249.111C597.956 249.111 598.5 249.655 598.5 250.327Z" fill="#9871F5" stroke="#9871F5"/>
<path d="M598.5 262.307C598.5 262.98 597.956 263.523 597.286 263.523C596.616 263.523 596.072 262.98 596.072 262.307C596.072 261.635 596.616 261.091 597.286 261.091C597.956 261.091 598.5 261.635 598.5 262.307Z" fill="#9871F5" stroke="#9871F5"/>
<path d="M586.527 190.4C586.527 191.072 585.983 191.616 585.313 191.616C584.643 191.616 584.099 191.072 584.099 190.4C584.099 189.728 584.643 189.184 585.313 189.184C585.983 189.184 586.527 189.728 586.527 190.4Z" fill="#9871F5" stroke="#9871F5"/>
<path d="M586.527 202.389C586.527 203.061 585.983 203.605 585.313 203.605C584.643 203.605 584.099 203.061 584.099 202.389C584.099 201.717 584.643 201.173 585.313 201.173C585.983 201.173 586.527 201.717 586.527 202.389Z" fill="#9871F5" stroke="#9871F5"/>
<path d="M586.527 214.369C586.527 215.041 585.983 215.585 585.313 215.585C584.643 215.585 584.099 215.041 584.099 214.369C584.099 213.697 584.643 213.153 585.313 213.153C585.983 213.153 586.527 213.697 586.527 214.369Z" fill="#9871F5" stroke="#9871F5"/>
<path d="M586.527 226.358C586.527 227.031 585.983 227.574 585.313 227.574C584.643 227.574 584.099 227.031 584.099 226.358C584.099 225.686 584.643 225.142 585.313 225.142C585.983 225.142 586.527 225.686 586.527 226.358Z" fill="#9871F5" stroke="#9871F5"/>
<path d="M586.527 238.338C586.527 239.011 585.983 239.554 585.313 239.554C584.643 239.554 584.099 239.011 584.099 238.338C584.099 237.666 584.643 237.122 585.313 237.122C585.983 237.122 586.527 237.666 586.527 238.338Z" fill="#9871F5" stroke="#9871F5"/>
<path d="M586.527 250.327C586.527 251 585.983 251.544 585.313 251.544C584.643 251.544 584.099 251 584.099 250.327C584.099 249.655 584.643 249.111 585.313 249.111C585.983 249.111 586.527 249.655 586.527 250.327Z" fill="#9871F5" stroke="#9871F5"/>
<path d="M586.527 262.307C586.527 262.98 585.983 263.523 585.313 263.523C584.643 263.523 584.099 262.98 584.099 262.307C584.099 261.635 584.643 261.091 585.313 261.091C585.983 261.091 586.527 261.635 586.527 262.307Z" fill="#9871F5" stroke="#9871F5"/>
<path d="M574.564 190.4C574.564 191.072 574.02 191.616 573.35 191.616C572.68 191.616 572.136 191.072 572.136 190.4C572.136 189.728 572.68 189.184 573.35 189.184C574.02 189.184 574.564 189.728 574.564 190.4Z" fill="#9871F5" stroke="#9871F5"/>
<path d="M574.564 202.389C574.564 203.061 574.02 203.605 573.35 203.605C572.68 203.605 572.136 203.061 572.136 202.389C572.136 201.717 572.68 201.173 573.35 201.173C574.02 201.173 574.564 201.717 574.564 202.389Z" fill="#9871F5" stroke="#9871F5"/>
<path d="M574.564 214.369C574.564 215.041 574.02 215.585 573.35 215.585C572.68 215.585 572.136 215.041 572.136 214.369C572.136 213.697 572.68 213.153 573.35 213.153C574.02 213.153 574.564 213.697 574.564 214.369Z" fill="#9871F5" stroke="#9871F5"/>
<path d="M574.564 226.358C574.564 227.031 574.02 227.574 573.35 227.574C572.68 227.574 572.136 227.031 572.136 226.358C572.136 225.686 572.68 225.142 573.35 225.142C574.02 225.142 574.564 225.686 574.564 226.358Z" fill="#9871F5" stroke="#9871F5"/>
<path d="M574.564 238.338C574.564 239.011 574.02 239.554 573.35 239.554C572.68 239.554 572.136 239.011 572.136 238.338C572.136 237.666 572.68 237.122 573.35 237.122C574.02 237.122 574.564 237.666 574.564 238.338Z" fill="#9871F5" stroke="#9871F5"/>
<path d="M574.564 250.327C574.564 251 574.02 251.544 573.35 251.544C572.68 251.544 572.136 251 572.136 250.327C572.136 249.655 572.68 249.111 573.35 249.111C574.02 249.111 574.564 249.655 574.564 250.327Z" fill="#9871F5" stroke="#9871F5"/>
<path d="M574.564 262.307C574.564 262.98 574.02 263.523 573.35 263.523C572.68 263.523 572.136 262.98 572.136 262.307C572.136 261.635 572.68 261.091 573.35 261.091C574.02 261.091 574.564 261.635 574.564 262.307Z" fill="#9871F5" stroke="#9871F5"/>
<path d="M562.591 190.4C562.591 191.072 562.047 191.616 561.377 191.616C560.707 191.616 560.163 191.072 560.163 190.4C560.163 189.728 560.707 189.184 561.377 189.184C562.047 189.184 562.591 189.728 562.591 190.4Z" fill="#9871F5" stroke="#9871F5"/>
<path d="M562.591 202.389C562.591 203.061 562.047 203.605 561.377 203.605C560.707 203.605 560.163 203.061 560.163 202.389C560.163 201.717 560.707 201.173 561.377 201.173C562.047 201.173 562.591 201.717 562.591 202.389Z" fill="#9871F5" stroke="#9871F5"/>
<path d="M562.591 214.369C562.591 215.041 562.047 215.585 561.377 215.585C560.707 215.585 560.163 215.041 560.163 214.369C560.163 213.697 560.707 213.153 561.377 213.153C562.047 213.153 562.591 213.697 562.591 214.369Z" fill="#9871F5" stroke="#9871F5"/>
<path d="M562.591 226.358C562.591 227.031 562.047 227.574 561.377 227.574C560.707 227.574 560.163 227.031 560.163 226.358C560.163 225.686 560.707 225.142 561.377 225.142C562.047 225.142 562.591 225.686 562.591 226.358Z" fill="#9871F5" stroke="#9871F5"/>
<path d="M562.591 238.338C562.591 239.011 562.047 239.554 561.377 239.554C560.707 239.554 560.163 239.011 560.163 238.338C560.163 237.666 560.707 237.122 561.377 237.122C562.047 237.122 562.591 237.666 562.591 238.338Z" fill="#9871F5" stroke="#9871F5"/>
<path d="M562.591 250.327C562.591 251 562.047 251.544 561.377 251.544C560.707 251.544 560.163 251 560.163 250.327C560.163 249.655 560.707 249.111 561.377 249.111C562.047 249.111 562.591 249.655 562.591 250.327Z" fill="#9871F5" stroke="#9871F5"/>
<path d="M562.591 262.307C562.591 262.98 562.047 263.523 561.377 263.523C560.707 263.523 560.163 262.98 560.163 262.307C560.163 261.635 560.707 261.091 561.377 261.091C562.047 261.091 562.591 261.635 562.591 262.307Z" fill="#9871F5" stroke="#9871F5"/>
<path d="M459.05 261.842H148.287C142.676 261.842 138.118 257.248 138.118 251.574V60.0307C138.118 54.3567 142.676 49.7621 148.287 49.7621H459.059C464.669 49.7621 469.228 54.3567 469.228 60.0307V251.573C469.219 257.248 464.66 261.842 459.05 261.842Z" fill="#04D361" stroke="#04D361"/>
<path d="M458.6 253.268H148.733C143.927 253.268 140.025 249.36 140.025 244.548V60.0729C140.025 55.2609 143.927 51.3528 148.733 51.3528H458.6C463.406 51.3528 467.309 55.2609 467.309 60.0729V244.548C467.309 249.369 463.406 253.268 458.6 253.268Z" fill="white"/>
<path d="M356.692 68.6108V198.765C356.692 202.691 353.518 205.869 349.597 205.869H153.894C152.135 205.869 150.521 205.23 149.28 204.162C147.767 202.856 146.8 200.929 146.8 198.765V68.6108C146.8 64.6845 149.983 61.5069 153.894 61.5069H349.597C351.357 61.5069 352.98 62.146 354.211 63.2144C355.734 64.5201 356.692 66.4468 356.692 68.6108Z" fill="#E6E6F0"/>
<path d="M453.5 117.142H372.491C368.57 117.142 365.396 113.965 365.396 110.038V68.6108C365.396 64.6845 368.57 61.5069 372.491 61.5069H453.5C457.421 61.5069 460.594 64.6845 460.594 68.6108V110.038C460.594 113.965 457.412 117.142 453.5 117.142Z" fill="#E6E6F0"/>
<path d="M453.5 182.636H372.491C368.57 182.636 365.396 179.458 365.396 175.532V134.104C365.396 130.178 368.57 127 372.491 127H453.5C457.421 127 460.594 130.178 460.594 134.104V175.532C460.594 179.458 457.412 182.636 453.5 182.636Z" fill="#E6E6F0"/>
<path d="M453.5 244.691H372.491C368.57 244.691 365.396 241.513 365.396 237.587V200.104C365.396 196.178 368.57 193 372.491 193H453.5C457.421 193 460.594 196.178 460.594 200.104V237.587C460.594 241.513 457.412 244.691 453.5 244.691Z" fill="#E6E6F0"/>
<path d="M253.825 219.84H149.381C147.958 219.84 146.809 218.689 146.809 217.265C146.809 215.84 147.958 214.69 149.381 214.69H253.825C255.247 214.69 256.396 215.84 256.396 217.265C256.396 218.68 255.247 219.84 253.825 219.84Z" fill="#E6E6F0"/>
<path d="M259.853 244H149.485C147.981 244 146.767 242.884 146.767 241.502V231.499C146.767 230.116 147.981 229 149.485 229H259.853C261.357 229 262.571 230.116 262.571 231.499V241.502C262.571 242.884 261.357 244 259.853 244Z" fill="#E6E6F0"/>
<path d="M331.15 219.84H354.12C355.543 219.84 356.692 218.689 356.692 217.265C356.692 215.84 355.543 214.69 354.12 214.69H331.15C329.728 214.69 328.579 215.84 328.579 217.265C328.579 218.68 329.728 219.84 331.15 219.84Z" fill="#E6E6F0"/>
<path d="M292.187 219.84H315.156C316.579 219.84 317.728 218.689 317.728 217.265C317.728 215.84 316.579 214.69 315.156 214.69H292.187C290.764 214.69 289.615 215.84 289.615 217.265C289.606 218.68 290.764 219.84 292.187 219.84Z" fill="#E6E6F0"/>
<path d="M308.564 244.11H354.12C355.543 244.11 356.692 242.959 356.692 241.535V231.226C356.692 229.801 355.543 228.651 354.12 228.651H308.564C307.141 228.651 305.992 229.801 305.992 231.226V241.535C305.992 242.959 307.141 244.11 308.564 244.11Z" fill="#E6E6F0"/>
<g opacity="0.24">
<path d="M412.702 104.14C420.634 104.14 427.064 97.7011 427.064 89.7584C427.064 81.8158 420.634 75.377 412.702 75.377C404.77 75.377 398.34 81.8158 398.34 89.7584C398.34 97.7011 404.77 104.14 412.702 104.14Z" fill="#E6E6F0" stroke="#6842C2" stroke-width="2" stroke-miterlimit="10"/>
<path d="M418.587 88.3404L410.389 83.6013C409.487 83.0809 408.365 83.7292 408.365 84.7701V94.2482C408.365 95.2891 409.487 95.9374 410.389 95.4169L418.587 90.6779C419.49 90.1574 419.49 88.8608 418.587 88.3404Z" fill="#E6E6F0" stroke="#6842C2" stroke-width="2" stroke-miterlimit="10"/>
</g>
<g opacity="0.24">
<path d="M412.702 168.763C420.634 168.763 427.064 162.324 427.064 154.381C427.064 146.439 420.634 140 412.702 140C404.77 140 398.34 146.439 398.34 154.381C398.34 162.324 404.77 168.763 412.702 168.763Z" fill="#E6E6F0" stroke="#6842C2" stroke-width="2" stroke-miterlimit="10"/>
<path d="M418.587 152.963L410.389 148.224C409.487 147.704 408.365 148.352 408.365 149.393V158.871C408.365 159.912 409.487 160.56 410.389 160.04L418.587 155.301C419.49 154.78 419.49 153.484 418.587 152.963Z" fill="#E6E6F0" stroke="#6842C2" stroke-width="2" stroke-miterlimit="10"/>
</g>
<g opacity="0.24">
<path d="M412.702 232.763C420.634 232.763 427.064 226.324 427.064 218.381C427.064 210.439 420.634 204 412.702 204C404.77 204 398.34 210.439 398.34 218.381C398.34 226.324 404.77 232.763 412.702 232.763Z" fill="#E6E6F0" stroke="#6842C2" stroke-width="2" stroke-miterlimit="10"/>
<path d="M418.587 216.963L410.389 212.224C409.487 211.704 408.365 212.352 408.365 213.393V222.871C408.365 223.912 409.487 224.56 410.389 224.04L418.587 219.301C419.49 218.78 419.49 217.484 418.587 216.963Z" fill="#E6E6F0" stroke="#6842C2" stroke-width="2" stroke-miterlimit="10"/>
</g>
<path d="M354.211 63.2144L149.28 204.161C147.767 202.856 146.8 200.929 146.8 198.765V68.6108C146.8 64.6845 149.983 61.5069 153.894 61.5069H349.597C351.357 61.5069 352.98 62.146 354.211 63.2144Z" fill="#F2F2FA"/>
<mask id="mask0" mask-type="alpha" maskUnits="userSpaceOnUse" x="147" y="32" width="210" height="175">
<path d="M356.947 40.8188V197.587C356.947 202.316 353.78 206.144 349.866 206.144H154.512C152.755 206.144 151.144 205.374 149.906 204.087C148.395 202.514 147.43 200.194 147.43 197.587V40.8188C147.43 36.0896 150.607 32.2622 154.512 32.2622H349.866C351.623 32.2622 353.243 33.0321 354.472 34.3189C355.992 35.8916 356.947 38.2123 356.947 40.8188Z" fill="#A3D1DE"/>
</mask>
<g mask="url(#mask0)">
<path d="M340.442 142.967C340.442 142.967 352.141 133.718 352.451 131.07C353.035 126.084 354.822 122.176 365.527 118.871C365.527 118.871 366.357 120.459 364.871 122.185C363.248 124.057 361.962 124.714 361.962 124.714C361.962 124.714 364.798 125.801 369.02 122.496C373.242 119.199 375.02 116.332 376.798 117.035C376.798 117.035 378.895 115.136 379.889 115.437C379.889 115.437 380.619 115.656 380.482 116.442C382.132 116.186 381.795 120.952 378.859 124.824C374.637 130.394 369.366 135.188 365.053 136.767C361.816 137.955 348.439 151.587 348.439 151.587L340.442 142.967Z" fill="#FFCAD0"/>
<path d="M304.314 190.157C299.208 191.883 270.877 148.254 270.877 148.254C259.925 135.635 269.755 94.0706 279.667 108.644C279.667 108.644 305.445 155.34 308.226 159.102C311.682 163.777 323.181 183.774 304.314 190.157Z" fill="#04D361"/>
<path d="M272.39 233.465H197.691C197.691 233.465 191.955 230.936 196.943 219.906C198.812 215.788 198.001 205.177 197.691 190.613C197.062 161.814 188.527 114.013 199.059 108.534C205.369 105.238 218.773 100.901 228.502 97.933C229.086 97.7687 229.651 97.5952 230.208 97.4308C235.888 95.7324 239.946 94.6093 239.946 94.6093C239.946 94.6093 244.651 95.2942 254.208 98.1248C254.727 98.28 255.265 98.4444 255.822 98.6087C258.311 99.3666 261.083 100.252 264.165 101.302C280.87 106.991 278.992 104.964 281.208 125.856C282.977 142.538 272.39 233.465 272.39 233.465Z" fill="#04D361"/>
<path d="M255.822 98.5996C255.603 102.142 254.016 105.274 251.6 107.566C249.147 109.913 245.819 111.337 242.189 111.337C234.703 111.337 228.648 105.338 228.493 97.933C229.077 97.7687 229.642 97.5952 230.199 97.4308C235.879 95.7324 239.937 94.6093 239.937 94.6093C239.937 94.6093 244.642 95.2942 254.199 98.1248C254.718 98.2709 255.265 98.4352 255.822 98.5996Z" fill="#F2F2FA"/>
<path d="M254.18 68.6954L253.004 91.45L252.667 97.9422C252.53 100.7 251.317 103.156 249.439 104.927C247.579 106.699 245.062 107.776 242.308 107.776C236.481 107.776 231.785 102.964 231.94 97.1386L232.232 85.5513L232.724 66.303L254.18 68.6954Z" fill="#FBD5D9"/>
<path d="M254.18 73.2426L253.004 94.6732C242.937 95.075 235.597 90.9843 232.232 85.5239L232.724 70.8685L254.18 73.2426Z" fill="#FFA4AD"/>
<path d="M226.04 46.4156C226.04 46.4156 216.393 45.2103 217.496 57.318C218.354 66.7048 231.092 79.2326 231.092 79.2326C231.092 79.2326 239.135 50.9446 226.04 46.4156Z" fill="#8F4A3F"/>
<path d="M265.442 55.1357C264.785 56.6332 263.773 57.939 262.943 59.3451C262.123 60.7513 261.466 62.3584 261.649 63.9837C261.484 61.3449 259.743 59.126 258.238 56.9619C256.734 54.7888 255.366 52.159 256.086 49.6206C256.77 47.1826 261.174 43.3384 263.855 44.9181C266.837 46.6712 266.609 52.4786 265.442 55.1357Z" fill="#0E1235"/>
<path d="M262.168 55.6197C262.168 55.6197 262.916 63.0341 261.877 71.2429C260.673 80.7301 261.101 91.87 247.141 92.6188C232.241 93.4132 227.308 76.7124 227.308 76.7124C227.308 76.7124 219.393 75.2332 218.855 69.8824C218.317 64.5225 223.843 64.2211 225.648 65.7278C225.648 65.7278 227.691 45.7581 246.12 45.7581C262.378 45.7399 262.168 55.6197 262.168 55.6197Z" fill="#FBD5D9"/>
<path d="M244.66 70.8592C244.66 71.6717 244.004 72.3382 243.183 72.3382C242.363 72.3382 241.706 71.6808 241.706 70.8592C241.706 70.0467 242.363 69.3802 243.183 69.3802C244.004 69.3802 244.66 70.0467 244.66 70.8592Z" fill="#9A5449"/>
<path d="M258.01 70.8592C258.01 71.6717 257.353 72.3382 256.533 72.3382C255.712 72.3382 255.056 71.6808 255.056 70.8592C255.056 70.0467 255.712 69.3802 256.533 69.3802C257.353 69.3802 258.01 70.0467 258.01 70.8592Z" fill="#9A5449"/>
<path d="M237.813 65.7187C237.813 65.7187 240.001 62.1119 244.661 63.4085" stroke="#561E15" stroke-width="1.0274" stroke-miterlimit="10" stroke-linecap="round" stroke-linejoin="round"/>
<path d="M252.694 63.3537C252.694 63.3537 256.059 60.2765 259.369 63.6459" stroke="#561E15" stroke-width="1.0274" stroke-miterlimit="10" stroke-linecap="round" stroke-linejoin="round"/>
<path d="M249.74 67.0153C249.74 67.0153 251.335 71.0968 252.694 73.6353C254.053 76.1737 250.041 77.306 250.041 77.306" stroke="#D66D78" stroke-width="0.7706" stroke-miterlimit="10" stroke-linecap="round" stroke-linejoin="round"/>
<path d="M244.396 81.8715C244.396 81.8715 247.688 85.0674 251.919 83.1133" stroke="#D66D78" stroke-width="0.7706" stroke-miterlimit="10" stroke-linecap="round" stroke-linejoin="round"/>
<path d="M225.383 71.5984C225.383 71.5984 225.338 67.0063 221.91 68.257" stroke="#D66D78" stroke-width="0.7706" stroke-miterlimit="10" stroke-linecap="round" stroke-linejoin="round"/>
<path d="M229.907 50.2506C229.907 50.2506 238.287 58.7973 233.7 62.0662C228.594 65.7095 227.8 70.8594 227.8 70.8594C227.8 70.8594 227.91 69.0424 225.639 65.7186C223.369 62.3858 218.417 50.5702 229.907 50.2506Z" fill="#8F4A3F"/>
<path d="M304.314 190.157C310.406 194.129 356.701 144.611 356.701 144.611L348.485 133.846C348.485 133.846 313.287 155.961 308.226 159.102C300.931 163.622 283.825 176.807 304.314 190.157Z" fill="#04D361"/>
<path d="M279.694 161.367C279.694 161.367 281.764 138.731 281.409 131.544C281.409 131.544 284.354 150.546 284.427 168.105L279.694 161.367Z" fill="#03A14A"/>
<path d="M201.466 153.651C201.466 153.651 212.308 107.165 200.709 107.712C200.709 107.712 196.925 108.169 189.521 119.674C184.341 127.719 178.67 141.662 168.329 164.343C163.442 175.063 157.332 189.572 168.676 190.349C174.812 190.769 181.25 187.408 185.043 180.35C191.992 167.42 201.466 153.651 201.466 153.651Z" fill="#04D361"/>
<path d="M211.168 211.514L270.174 197.589C270.165 197.589 251.609 211.514 211.168 211.514Z" fill="#03A14A"/>
<path d="M195.32 162.992C195.32 162.992 204.84 146.109 209.901 137.872L198.019 202.456C198.019 202.456 196.861 176.077 195.32 162.992Z" fill="#03A14A"/>
<path d="M233.262 184.989L197.974 201.488L199.788 184.523L233.262 184.989Z" fill="#03A14A"/>
<path d="M239.043 182.166L239.043 182.166L244.87 150.308L244.87 150.306C245.173 148.628 246.634 147.412 248.345 147.412H260.728C262.932 147.412 264.602 149.412 264.202 151.588L264.202 151.589L258.376 183.446C258.064 185.127 256.601 186.342 254.901 186.342H242.518C240.313 186.342 238.643 184.343 239.043 182.166Z" fill="#04D361" stroke="#04D361"/>
<path d="M256.433 188.193H244.049C241.533 188.193 239.627 185.911 240.083 183.427L245.91 151.569C246.256 149.651 247.925 148.263 249.876 148.263H262.259C264.776 148.263 266.682 150.546 266.226 153.03L260.399 184.888C260.053 186.805 258.384 188.193 256.433 188.193Z" fill="white"/>
<path d="M247.231 159.553L247.232 159.548L248.654 151.768L248.654 151.768L248.655 151.765C248.676 151.643 248.784 151.548 248.919 151.548H251.135C251.307 151.548 251.432 151.703 251.401 151.867L251.4 151.872L249.977 159.651L249.977 159.651L249.977 159.655C249.956 159.777 249.848 159.871 249.712 159.871H247.497C247.325 159.871 247.199 159.717 247.231 159.553Z" fill="#04D361" stroke="#04D361"/>
<path d="M221.627 170.963C221.627 170.963 227.664 170.762 232.287 169.347C234.275 168.735 238.214 168.023 239.518 166.133C240.831 164.225 240.712 160.106 242.025 159.933C243.038 159.796 245.062 163.019 244.542 165.192C244.031 167.32 243.785 168.498 243.01 169.448C242.755 169.767 251.263 170.37 256.652 169.183C260.345 168.37 259.25 172.032 256.743 173.182C256.743 173.182 257.636 175.419 255.019 176.177C255.019 176.177 255.047 179.163 252.548 179.3C252.266 179.994 251.782 181.473 249.621 182.003C246.475 182.779 241.724 183.071 236.937 182.642C234.503 182.423 223.268 184.395 223.268 184.395L221.627 170.963Z" fill="#FFCAD0"/>
<path d="M168.311 190.522C176.928 192.029 228.293 186.221 228.293 186.221L227.016 168.224C227.016 168.224 185.162 170.178 179.581 169.676C161.125 168.041 157.587 188.65 168.311 190.522Z" fill="#04D361"/>
<path d="M231.94 36.6812C232.825 35.7955 233.81 34.855 235.05 34.7181C236.29 34.5811 237.703 35.7407 237.293 36.9278C241.515 35.0924 245.928 33.7228 250.442 32.8462C251.573 32.6271 252.794 32.4444 253.843 32.9466C254.883 33.4488 255.53 34.9007 254.819 35.8047C257.007 36.6265 259.433 36.0877 261.758 35.8138C264.083 35.5399 266.737 35.6586 268.314 37.3843C269.782 38.9823 269.81 41.3929 269.764 43.5661C269.691 46.5428 269.618 49.5378 268.943 52.4415C267.94 56.7331 265.606 60.696 262.332 63.6453C263.308 60.3033 261.566 56.5961 258.822 54.4503C256.086 52.2954 252.557 51.4462 249.101 51.0535C244.962 50.5787 240.749 50.6883 236.627 51.364C233.518 51.8753 229.077 54.0942 225.986 52.688C219.138 49.5834 229.296 39.3293 231.94 36.6812Z" fill="#8F4A3F"/>
</g>
<path d="M337.798 75.1578H294.922C291.64 75.1578 288.977 72.4915 288.977 69.2044V51.1979C288.977 47.9107 291.64 45.2444 294.922 45.2444H337.798C341.081 45.2444 343.743 47.9107 343.743 51.1979V69.2044C343.743 72.4915 341.081 75.1578 337.798 75.1578Z" fill="#04D361"/>
<path d="M298.15 73.222V81.4217L306.922 72.6376L298.15 73.222Z" fill="#04D361"/>
<path d="M301.57 63.6253C303.458 63.6253 304.989 62.0922 304.989 60.2011C304.989 58.31 303.458 56.777 301.57 56.777C299.681 56.777 298.15 58.31 298.15 60.2011C298.15 62.0922 299.681 63.6253 301.57 63.6253Z" fill="#E6E6F0"/>
<path d="M316.36 63.6253C318.248 63.6253 319.779 62.0922 319.779 60.2011C319.779 58.31 318.248 56.777 316.36 56.777C314.471 56.777 312.94 58.31 312.94 60.2011C312.94 62.0922 314.471 63.6253 316.36 63.6253Z" fill="#E6E6F0"/>
<path d="M331.15 63.6253C333.039 63.6253 334.57 62.0922 334.57 60.2011C334.57 58.31 333.039 56.777 331.15 56.777C329.262 56.777 327.731 58.31 327.731 60.2011C327.731 62.0922 329.262 63.6253 331.15 63.6253Z" fill="#E6E6F0"/>
<path d="M455.737 318.882L453.795 342.54H463.871L469.105 318.882H455.737Z" fill="#FEC9CF"/>
<path d="M464.965 337.591C464.965 337.591 469.342 344.668 466.06 345.928C462.777 347.188 441.166 347.298 435.832 346.503C430.497 345.7 447.731 338.386 451.671 337.235C455.619 336.085 456.886 342.084 464.965 337.591Z" fill="#6842C2"/>
<path d="M508.716 318.882L510.649 342.54H500.573L495.348 318.882H508.716Z" fill="#FEC9CF"/>
<path d="M499.479 337.591C499.479 337.591 495.102 344.668 498.385 345.928C501.668 347.188 523.279 347.298 528.613 346.503C533.947 345.7 516.713 338.386 512.774 337.235C508.835 336.085 507.558 342.084 499.479 337.591Z" fill="#6842C2"/>
<path d="M453.713 189.522L449.145 331.373H470.418L475.005 236.894L493.233 334.085L516.403 330.223C516.403 330.223 495.485 224.202 491.929 189.531H453.713V189.522Z" fill="#D8D8E3"/>
<path d="M474.027 243.401L473.304 228.101L474.502 236.901L474.027 243.401Z" fill="#194248" stroke="#C9C9D4"/>
<path d="M485.09 189.522L509.71 331.017" stroke="#C9C9D4" stroke-miterlimit="10" stroke-linecap="round" stroke-linejoin="round"/>
<path d="M479.966 84.9623C484.507 84.9714 489.33 87.3546 490.862 91.6371C492.048 94.9334 491.154 98.8232 492.814 101.91C494.035 104.192 496.479 105.662 497.583 108C499.862 112.858 495.421 118.628 496.835 123.797C498.139 128.581 504.057 131.321 504.549 136.261C504.868 139.411 502.653 142.433 499.798 143.803C496.953 145.182 493.616 145.172 490.497 144.652C482.847 143.365 475.643 139.164 467.893 139.566C464.701 139.73 461.364 140.662 458.409 139.429C456.303 138.552 454.78 136.699 453.44 134.854C451.899 132.736 450.421 130.325 450.567 127.714C450.777 123.879 454.251 121.194 456.33 117.971C458.455 114.675 459.348 110.557 458.756 106.676C455.938 88.2312 466.297 88.7973 467.619 88.7699C468.832 88.7425 472.862 86.268 474.458 85.8023C476.263 85.2819 478.105 84.9623 479.966 84.9623Z" fill="#D38D00"/>
<path d="M431.3 162.348C426.914 158.85 409.078 147.035 408.904 145.382C408.576 142.278 407.491 139.821 400.844 137.703C400.844 137.703 400.315 138.689 401.236 139.776C402.23 140.954 403.032 141.364 403.032 141.364C403.032 141.364 401.263 142.022 398.655 139.94C396.047 137.858 394.962 136.059 393.85 136.488C393.85 136.488 392.555 135.292 391.935 135.475C391.935 135.475 391.479 135.603 391.561 136.096C390.53 135.922 390.713 138.89 392.509 141.328C395.099 144.825 399.667 147.491 402.348 148.505C404.354 149.263 417.512 168.748 426.33 170.858C428.865 171.442 433.342 163.973 431.3 162.348Z" fill="#FCDDC6"/>
<path d="M445.096 145.063C445.096 145.063 425.382 158.833 423.476 162.257C421.57 165.681 422.993 174.821 431.774 168.95C440.555 163.078 454.415 152.423 454.415 152.423L445.096 145.063Z" fill="#FCDDC6"/>
<path d="M455.227 132.526C455.227 132.526 449.81 133.896 446.199 138.196C443.172 141.803 438.294 147.61 438.294 147.61L453.248 159.243C453.257 159.234 456.905 138.087 455.227 132.526Z" fill="#47248F"/>
<path d="M491.929 189.522H453.704C453.704 189.522 453.859 182.957 451.734 172.757C449.601 162.567 450.667 157.235 452.792 151.911C454.926 146.588 451.123 134.279 455.227 132.526C456.895 131.814 459.795 130.663 462.64 129.558C463.36 129.284 464.072 129.001 464.756 128.737C468.057 127.458 470.838 126.399 470.838 126.399H477.722C477.722 126.399 482.464 127.97 487.333 129.914C487.972 130.17 488.619 130.435 489.257 130.7C489.257 130.709 489.257 130.709 489.257 130.709C491.71 131.741 494.054 132.827 495.649 133.823C500.82 137.018 491.929 189.522 491.929 189.522Z" fill="#6842C2"/>
<path d="M468.521 109.461L469.251 123.632L469.461 127.677C469.552 129.394 470.3 130.928 471.467 132.033C472.625 133.138 474.193 133.804 475.908 133.804C479.537 133.804 482.455 130.809 482.364 127.184L482.181 119.971L481.871 107.982L468.521 109.461Z" fill="#FFDFC8"/>
<path d="M468.521 109.461L469.251 122.811C475.515 123.066 480.093 120.509 482.19 117.113L481.88 107.982L468.521 109.461Z" fill="#DA9F74"/>
<path d="M463.543 98.4854C463.543 98.4854 463.078 103.106 463.725 108.21C464.473 114.118 465.129 120.884 472.908 121.523C482.172 122.281 485.263 111.616 485.263 111.616C485.263 111.616 489.567 110.611 490.096 107.671C490.625 104.722 487.415 103.836 486.294 104.768C486.294 104.768 485.017 92.331 473.546 92.331C463.406 92.331 463.543 98.4854 463.543 98.4854Z" fill="#FFDFC8"/>
<path d="M489.257 130.7C489.257 130.709 489.257 130.709 489.257 130.7C481.415 140.269 472.169 139.822 472.169 139.822C464.874 138.224 462.64 129.558 462.64 129.558C463.361 129.284 464.072 129.001 464.756 128.737C468.057 127.458 470.838 126.399 470.838 126.399H477.722C477.722 126.399 482.464 127.97 487.333 129.914C487.972 130.17 488.619 130.435 489.257 130.7Z" fill="#04D361"/>
<path d="M487.333 129.914C479.336 138.616 472.406 137.703 472.406 137.703C464.956 134.845 464.755 128.737 464.755 128.737C468.056 127.458 470.838 126.399 470.838 126.399H477.722C477.722 126.399 482.464 127.97 487.333 129.914Z" fill="#FCDDC6"/>
<path d="M467.537 89.6465C467.537 89.6465 468.604 98.6406 462.832 101.608C462.832 101.608 459.941 90.7148 467.537 89.6465Z" fill="#D38D00"/>
<path d="M465.786 90.5048C465.786 90.5048 467.838 98.3392 472.926 98.7958C478.014 99.2523 477.111 103.38 481.616 103.854C484.297 104.137 485.491 106.932 485.491 106.932C485.491 106.932 485.883 104.156 488.309 103.17C490.753 102.183 482.573 81.4468 465.786 90.5048Z" fill="#D38D00"/>
<path d="M474.421 109.36C474.421 109.853 474.813 110.246 475.306 110.246C475.798 110.246 476.19 109.853 476.19 109.36C476.19 108.867 475.798 108.475 475.306 108.475C474.822 108.475 474.421 108.876 474.421 109.36Z" fill="#60423D"/>
<path d="M466.416 109.36C466.416 109.853 466.808 110.245 467.3 110.245C467.793 110.245 468.185 109.853 468.185 109.36C468.185 108.867 467.784 108.474 467.3 108.474C466.808 108.474 466.416 108.876 466.416 109.36Z" fill="#60423D"/>
<path d="M478.533 106.274C478.533 106.274 477.22 104.11 474.421 104.886" stroke="#561E15" stroke-miterlimit="10" stroke-linecap="round" stroke-linejoin="round"/>
<path d="M469.606 104.859C469.606 104.859 467.582 103.015 465.604 105.032" stroke="#561E15" stroke-miterlimit="10" stroke-linecap="round" stroke-linejoin="round"/>
<path d="M471.375 107.059C471.375 107.059 470.418 109.506 469.606 111.031C468.795 112.556 471.202 113.232 471.202 113.232" stroke="#DA9F74" stroke-width="0.75" stroke-miterlimit="10" stroke-linecap="round" stroke-linejoin="round"/>
<path d="M476.682 114.967C476.682 114.967 475.123 117.24 472.406 116.592" stroke="#DA9F74" stroke-width="0.75" stroke-miterlimit="10" stroke-linecap="round" stroke-linejoin="round"/>
<path d="M486.266 108.739C486.266 108.739 486.294 105.982 488.345 106.74" stroke="#DA9F74" stroke-width="0.75" stroke-miterlimit="10" stroke-linecap="round" stroke-linejoin="round"/>
<path d="M454.488 180.409H419.473C418.78 180.409 418.215 179.843 418.215 179.149C418.215 178.455 418.78 177.889 419.473 177.889H454.488C455.181 177.889 455.747 178.455 455.747 179.149C455.738 179.852 455.181 180.409 454.488 180.409Z" fill="#04D361"/>
<path d="M415.535 150.622L415.535 150.622L415.535 150.62C415.323 149.777 415.968 148.951 416.837 148.951H448.378C448.998 148.951 449.534 149.371 449.68 149.966L449.68 149.968L456.475 177.398H422.171L415.535 150.622Z" fill="#04D361" stroke="#04D361"/>
<path d="M454.689 177.898H419.354L412.625 150.742C412.333 149.583 413.218 148.451 414.412 148.451H445.953C446.801 148.451 447.54 149.026 447.74 149.848L454.689 177.898Z" fill="white"/>
<path d="M481.588 180.409H455.09C454.442 180.409 453.914 179.88 453.914 179.231V179.076C453.914 178.428 454.442 177.898 455.09 177.898H481.588C482.236 177.898 482.765 178.428 482.765 179.076V179.231C482.774 179.889 482.245 180.409 481.588 180.409Z" fill="#04D361"/>
<path d="M434.48 161.632L434.48 161.633C435.072 163.168 434.519 164.577 433.571 164.95C432.628 165.312 431.274 164.639 430.681 163.1C430.088 161.561 430.645 160.147 431.589 159.783C432.533 159.419 433.888 160.086 434.48 161.632Z" fill="#04D361" stroke="#04D361"/>
<path d="M493.862 177.898L491.564 148.076L495.978 160.631L493.862 177.898Z" fill="#47248F"/>
<path d="M494.163 151.108C494.163 151.108 499.616 180.455 500.965 185.258C501.841 188.362 508.206 190.481 510.203 186.372C510.64 185.468 510.54 183.961 510.494 182.427C510.184 172.94 503.555 148.797 503.555 148.797L494.163 151.108Z" fill="#FCDDC6"/>
<path d="M495.658 133.823C495.658 133.823 498.914 135.494 501.649 140.214C504.385 144.935 508.16 153.263 507.923 155.281C506.5 159.161 495.266 163.179 495.266 163.179C495.266 163.179 487.762 138.479 495.658 133.823Z" fill="#6842C2"/>
<path d="M501.959 179.587C501.959 179.587 484.643 179.204 481.36 177.25C476.911 174.593 475.88 175.743 473.3 175.104C469.16 174.072 469.616 174.912 469.616 174.912C469.616 174.912 469.807 177.314 473.008 177.615C474.622 177.77 477.038 178.455 476.528 178.848C476.528 178.848 463.689 180.19 461.108 180.418C458.528 180.647 459.786 182.637 461.756 183.094C461.756 183.094 462.932 184.582 464.838 184.126C464.838 184.126 464.418 184.966 469.36 184.966C474.303 184.966 479.263 182.336 481.771 183.477C484.278 184.619 497.82 189.869 506.409 188.655C510.513 188.07 510.54 186.098 510.54 184.016C510.54 180.409 507.877 179.953 501.959 179.587Z" fill="#FCDDC6"/>
<path d="M142.705 318.882L136.988 342.54H126.912L129.338 318.882H142.705Z" fill="#BC8567"/>
<path d="M125.818 337.591C125.818 337.591 121.441 344.668 124.724 345.928C128.007 347.188 149.618 347.298 154.952 346.503C160.286 345.7 143.052 338.386 139.113 337.235C135.174 336.085 133.897 342.084 125.818 337.591Z" fill="#6842C2"/>
<path d="M110.973 318.882L107.517 342.54H97.4406L97.6047 318.882H110.973Z" fill="#BC8567"/>
<path d="M96.347 337.591C96.347 337.591 91.9701 344.668 95.2528 345.928C98.5354 347.188 120.146 347.298 125.481 346.503C130.815 345.7 113.581 338.386 109.642 337.235C105.703 336.085 104.426 342.084 96.347 337.591Z" fill="#6842C2"/>
<path d="M94.04 204.461L94.7877 330.707H110.782L122.08 237.953L134.955 275.591L125.317 330.716H142.715C142.715 330.716 158.007 283.079 157.387 273.729C156.767 264.369 139.113 200.616 139.113 200.616L94.04 204.461Z" fill="#D8D8E3"/>
<path d="M124.944 244.816L122.579 237.894L123.681 226.693L124.944 244.816Z" fill="#C9C9D4" stroke="#C9C9D4"/>
<path d="M103.068 202.936L102.146 330.716" stroke="#C9C9D4" stroke-miterlimit="10"/>
<path d="M152.043 146.643C152.043 146.643 162.374 166.21 162.602 172.219C162.83 178.227 156.219 176.885 152.8 171.47C149.381 166.046 143.909 150.669 143.909 150.669L152.043 146.643Z" fill="#BC8567"/>
<path d="M153.976 148.277C153.976 148.277 151.013 153.555 143.909 156.778C142.441 157.445 141.201 155.682 140.28 153.591C139.213 151.153 138.593 148.277 138.593 148.277C138.593 148.277 130.45 123.048 137.627 123.952C137.627 123.952 143.736 124.381 148.222 133.238C149.399 135.548 151.232 140.205 152.764 144.625C153.201 145.885 153.612 147.117 153.976 148.277Z" fill="#47248F"/>
<path d="M153.976 148.277C153.976 148.277 151.013 153.555 143.909 156.778C142.441 157.445 141.201 155.682 140.28 153.591C143.061 152.34 148.323 149.528 152.764 144.625C153.201 145.885 153.612 147.117 153.976 148.277Z" fill="#04D361"/>
<path d="M139.478 201.995C134.964 207.127 105.247 206.369 94.0308 204.46C92.0612 204.123 90.1189 203.365 93.2283 196.498C94.3955 193.932 93.894 187.331 93.6934 178.254C93.3013 160.312 87.9852 130.545 94.5414 127.129C98.4715 125.075 106.815 122.372 112.879 120.528C113.244 120.427 113.599 120.318 113.946 120.208C117.484 119.149 120.01 118.446 120.01 118.446C120.01 118.446 122.937 118.875 128.891 120.637C129.21 120.729 129.557 120.838 129.903 120.939C131.453 121.413 133.177 121.961 135.101 122.619C138.83 123.888 141.566 124.664 142.232 125.906C144.01 129.166 143.326 134.946 143.435 143.273C143.581 153.728 143.472 197.466 139.478 201.995Z" fill="#6842C2"/>
<path d="M92.2983 157.938L98.7086 142.287L94.0399 182.546L92.2983 157.938Z" fill="#47248F"/>
<path d="M129.903 120.948C129.766 123.158 128.773 125.102 127.277 126.527C125.745 127.988 123.675 128.874 121.423 128.874C116.763 128.874 112.988 125.139 112.897 120.519C113.262 120.418 113.617 120.309 113.964 120.199C117.502 119.14 120.028 118.437 120.028 118.437C120.028 118.437 122.955 118.866 128.909 120.628C129.219 120.747 129.557 120.847 129.903 120.948Z" fill="#04D361"/>
<path d="M133.789 86.5C133.789 86.5 130.413 83.2687 125.304 82.5C117.83 81.3755 107.991 83.8103 106.031 95.2347C104.481 101.818 112.496 112.638 115.523 112.008C115.523 112.008 142.774 94.7347 133.789 86.5Z" fill="#43302D"/>
<path d="M128.882 102.33L128.153 116.501L127.943 120.546C127.861 122.263 127.104 123.797 125.937 124.902C124.779 126.006 123.21 126.673 121.496 126.673C117.867 126.673 114.949 123.678 115.04 120.053L115.222 112.839L115.532 100.85L128.882 102.33Z" fill="#BC8567"/>
<path d="M128.882 105.151L128.153 118.501C121.888 118.756 117.311 116.2 115.213 112.803L115.523 103.672L128.882 105.151Z" fill="#765441"/>
<path d="M133.852 94.1755C133.852 94.1755 134.317 98.7958 133.669 103.9C132.922 109.808 133.186 116.747 124.487 117.213C115.204 117.706 112.131 107.306 112.131 107.306C112.131 107.306 107.198 106.384 106.861 103.051C106.523 99.7181 109.97 99.5263 111.092 100.458C111.092 100.458 112.368 88.0212 123.839 88.0212C133.988 88.0303 133.852 94.1755 133.852 94.1755Z" fill="#BC8567"/>
<path d="M123.237 103.106C123.237 103.617 122.827 104.028 122.317 104.028C121.806 104.028 121.396 103.617 121.396 103.106C121.396 102.594 121.806 102.183 122.317 102.183C122.818 102.183 123.237 102.594 123.237 103.106Z" fill="#60423D"/>
<path d="M132.11 102.631C132.11 103.142 131.699 103.553 131.189 103.553C130.678 103.553 130.268 103.142 130.268 102.631C130.268 102.119 130.678 101.709 131.189 101.709C131.699 101.709 132.11 102.119 132.11 102.631Z" fill="#60423D"/>
<path d="M118.687 100.467C118.687 100.467 120.046 98.2206 122.954 99.0332" stroke="#43302D" stroke-miterlimit="10" stroke-linecap="round" stroke-linejoin="round"/>
<path d="M127.952 98.9966C127.952 98.9966 130.049 97.0794 132.109 99.1791" stroke="#43302D" stroke-miterlimit="10" stroke-linecap="round" stroke-linejoin="round"/>
<path d="M126.119 101.279C126.119 101.279 127.113 103.818 127.961 105.407C128.809 106.986 126.301 107.689 126.301 107.689" stroke="#765441" stroke-width="0.75" stroke-miterlimit="10" stroke-linecap="round" stroke-linejoin="round"/>
<path d="M122.782 110.529C122.782 110.529 124.833 112.519 127.468 111.305" stroke="#765441" stroke-width="0.75" stroke-miterlimit="10" stroke-linecap="round" stroke-linejoin="round"/>
<path d="M110.945 104.127C110.945 104.127 110.918 101.27 108.785 102.046" stroke="#765441" stroke-width="0.75" stroke-miterlimit="10" stroke-linecap="round" stroke-linejoin="round"/>
<path d="M113.763 90.8335C113.763 90.8335 118.979 96.1569 116.125 98.1932C112.952 100.458 112.45 103.672 112.45 103.672C112.45 103.672 112.514 102.54 111.101 100.467C109.687 98.394 106.605 91.0344 113.763 90.8335Z" fill="#43302D"/>
<path d="M85.2041 147.693C85.2041 147.693 74.8727 167.261 74.6448 173.269C74.4168 179.277 81.0278 177.935 84.4472 172.52C87.8667 167.096 93.3379 151.719 93.3379 151.719L85.2041 147.693Z" fill="#BC8567"/>
<path d="M158.873 165.598C158.873 165.598 143.472 154.185 142.596 153.536C141.11 152.422 138.94 150.806 138.156 150.258C136.915 149.391 129.666 148.131 128.654 148.295C127.651 148.459 124.87 148.934 124.058 149.235C123.247 149.537 124.268 150.578 125.07 151.071C125.873 151.564 129.429 153.408 132.447 153.965C134.125 154.276 135.566 155.125 136.742 155.974C137.681 156.65 153.931 173.241 154.542 173.643L158.873 165.598Z" fill="#BC8567"/>
<path d="M139.806 151.592C139.806 151.592 134.007 146.159 133.14 146.241C132.283 146.323 132.894 147.547 135.174 149.4C135.949 150.03 136.779 151.025 137.472 151.354C138.83 151.993 139.806 151.592 139.806 151.592Z" fill="#BC8567"/>
<path d="M135.133 171.165L135.135 171.165C135.648 171.107 136.072 170.736 136.204 170.23L136.204 170.23L141.255 150.781C141.477 149.926 140.765 149.107 139.884 149.212C139.883 149.212 139.883 149.212 139.883 149.212L118.738 151.741L118.735 151.741L118.735 151.741C118.223 151.8 117.798 152.171 117.667 152.676L117.667 152.676L112.615 172.125C112.394 172.981 113.105 173.799 113.987 173.695L135.133 171.165ZM135.133 171.165L113.987 173.695L135.133 171.165Z" fill="#04D361" stroke="#04D361"/>
<path d="M136.132 172.31L114.986 174.839C113.755 174.985 112.761 173.844 113.071 172.648L118.123 153.199C118.305 152.496 118.898 151.975 119.618 151.893L140.764 149.364C141.995 149.217 142.989 150.359 142.679 151.555L137.627 171.004C137.445 171.698 136.852 172.219 136.132 172.31Z" fill="white"/>
<path d="M119.863 157.108L119.863 157.108L119.862 157.113C119.861 157.117 119.857 157.126 119.845 157.137C119.833 157.147 119.818 157.155 119.8 157.159L118.794 157.276L118.794 157.276C118.773 157.278 118.754 157.272 118.739 157.254C118.723 157.236 118.719 157.217 118.724 157.196L118.724 157.196L119.718 153.379L119.718 153.379L119.721 153.37C119.725 153.351 119.742 153.333 119.768 153.33L120.787 153.211L120.787 153.211C120.808 153.209 120.827 153.216 120.842 153.234C120.858 153.252 120.862 153.271 120.857 153.291L120.857 153.292L119.863 157.108Z" fill="#04D361" stroke="#04D361"/>
<path d="M78.593 167.48C85.049 167.735 105.228 167.315 107.9 166.402C109.049 166.01 111.876 165.416 112.596 164.293C113.326 163.152 113.946 161.417 114.703 161.289C115.286 161.188 115.149 163.069 114.976 163.754C114.648 164.987 114.429 165.626 113.991 166.192C113.845 166.384 118.815 167.096 121.934 166.302C124.076 165.754 123.675 167.471 122.235 168.192C122.235 168.192 122.809 169.689 121.295 170.183C121.295 170.183 121.56 171.844 120.101 171.972C119.946 172.383 119.49 173.123 118.231 173.479C116.408 173.99 113.244 173.981 110.836 174.081C109.414 174.136 81.9213 178.437 77.0611 177.213C75.0368 176.702 76.4957 167.398 78.593 167.48Z" fill="#BC8567"/>
<path d="M97.122 150.322C97.122 150.322 96.6478 152.121 95.9457 153.975C95.1615 156.02 94.0946 158.12 93.046 157.929C93.046 157.929 78.7845 153.418 79.2587 151.957C79.6143 150.87 80.2253 149.455 80.9821 147.884C83.3438 142.972 87.0915 136.562 88.6052 134.078C93.7663 125.595 95.8819 126.673 95.8819 126.673C103.113 126.326 97.122 150.322 97.122 150.322Z" fill="#6842C2"/>
<path d="M95.9457 153.975C95.1615 156.02 94.0946 158.12 93.046 157.929C93.046 157.929 78.7845 153.418 79.2587 151.957C79.6143 150.87 80.2253 149.455 80.9821 147.884C83.6083 149.126 90.6934 152.386 95.9457 153.975Z" fill="#04D361"/>
<path d="M100.469 193.96C100.469 193.96 124.177 190.152 136.943 182.546C136.943 182.546 122.663 196.854 100.469 193.96Z" fill="#47248F"/>
<path d="M396.148 284.439H334.497C331.46 284.439 329.008 281.974 329.008 278.943V249.111C329.008 246.071 331.47 243.615 334.497 243.615H396.148C399.184 243.615 401.637 246.08 401.637 249.111V278.933C401.646 281.974 399.184 284.439 396.148 284.439Z" fill="#6842C2"/>
<path d="M335.545 273.893C341.29 273.893 341.29 267.045 347.035 267.045C352.779 267.045 352.779 257.914 358.524 257.914C364.269 257.914 364.269 261.411 370.013 261.411C375.758 261.411 375.758 252.965 381.503 252.965C387.247 252.965 387.247 266.214 392.992 266.214" stroke="white" stroke-width="2" stroke-miterlimit="10" stroke-linecap="round" stroke-linejoin="round"/>
<path d="M337.223 273.893C337.223 272.971 336.475 272.222 335.554 272.222C334.633 272.222 333.886 272.971 333.886 273.893C333.886 274.815 334.633 275.563 335.554 275.563C336.475 275.563 337.223 274.815 337.223 273.893Z" fill="white"/>
<path d="M394.67 266.223C394.67 265.301 393.922 264.552 393.001 264.552C392.08 264.552 391.333 265.301 391.333 266.223C391.333 267.145 392.08 267.893 393.001 267.893C393.922 267.893 394.67 267.145 394.67 266.223Z" fill="white"/>
<path d="M39.6203 69.0468H101.198C105.32 69.0468 108.666 65.6957 108.666 61.5685V42.7493C108.666 38.6221 105.32 35.271 101.198 35.271H39.6203C35.4987 35.271 32.1522 38.6221 32.1522 42.7493V61.5685C32.1522 65.7048 35.4987 69.0468 39.6203 69.0468Z" fill="#6842C2"/>
<path d="M99.4928 67.111V75.3107L90.7116 66.5266L99.4928 67.111Z" fill="#6842C2"/>
<path d="M39.2281 43.562H56.2981" stroke="white" stroke-width="2.2165" stroke-miterlimit="10" stroke-linecap="round" stroke-linejoin="round"/>
<path d="M62.3802 43.562H101.59" stroke="white" stroke-width="2.2165" stroke-miterlimit="10" stroke-linecap="round" stroke-linejoin="round"/>
<path d="M39.2281 52.1635H71.052" stroke="white" stroke-width="2.2165" stroke-miterlimit="10" stroke-linecap="round" stroke-linejoin="round"/>
<path d="M75.9214 52.1635H85.3409" stroke="white" stroke-width="2.2165" stroke-miterlimit="10" stroke-linecap="round" stroke-linejoin="round"/>
<path d="M90.3925 52.1635H101.59" stroke="white" stroke-width="2.2165" stroke-miterlimit="10" stroke-linecap="round" stroke-linejoin="round"/>
<path d="M39.2281 60.7558H46.4318" stroke="white" stroke-width="2.2165" stroke-miterlimit="10" stroke-linecap="round" stroke-linejoin="round"/>
<path d="M50.8452 60.7558H76.8331" stroke="white" stroke-width="2.2165" stroke-miterlimit="10" stroke-linecap="round" stroke-linejoin="round"/>
<path d="M422.892 38.5514H407.09C404.153 38.5514 401.773 36.1682 401.773 33.228V17.4038C401.773 14.4636 404.153 12.0804 407.09 12.0804H422.892C425.828 12.0804 428.208 14.4636 428.208 17.4038V33.228C428.208 36.1682 425.828 38.5514 422.892 38.5514Z" fill="#6842C2"/>
<path d="M423.986 23.95L423.594 22.2151C423.521 21.8773 423.174 21.6673 422.837 21.7403L421.815 21.9777C421.551 22.0417 421.287 21.9138 421.141 21.6855C420.739 21.0555 420.247 20.4894 419.682 20.0146C419.454 19.8228 419.381 19.5123 419.508 19.2475L420.019 18.1975C420.174 17.887 420.037 17.5035 419.727 17.3574L418.122 16.5813C417.812 16.426 417.429 16.563 417.283 16.8735L416.736 18.0149C416.618 18.2705 416.335 18.3984 416.062 18.3618C415.724 18.3162 415.369 18.2888 415.022 18.2888C414.666 18.2888 414.32 18.3162 413.983 18.3618C413.7 18.3984 413.426 18.2705 413.308 18.0149L412.761 16.8735C412.606 16.563 412.232 16.426 411.922 16.5813L410.317 17.3574C410.007 17.5126 409.87 17.887 410.025 18.1975L410.536 19.2475C410.663 19.5123 410.581 19.8228 410.363 20.0146C409.797 20.4985 409.296 21.0555 408.904 21.6855C408.758 21.9138 408.493 22.0417 408.229 21.9777L407.207 21.7403C406.87 21.6673 406.533 21.8773 406.451 22.2151L406.059 23.95C405.986 24.2879 406.195 24.6257 406.533 24.7079L407.828 25.0001C407.818 25.1827 407.8 25.3562 407.8 25.5388C407.8 26.4063 407.955 27.2464 408.238 28.0134C408.329 28.269 408.265 28.5612 408.046 28.7347L407.545 29.1365C407.271 29.3556 407.226 29.7483 407.445 30.0222L408.502 31.4193C408.721 31.6932 409.113 31.7388 409.387 31.5197L409.733 31.2366C409.97 31.054 410.299 31.0631 410.527 31.2458C411.256 31.8119 412.086 32.2502 412.998 32.515C413.271 32.5972 413.472 32.8346 413.472 33.1268V33.492C413.472 33.839 413.755 34.122 414.101 34.122H415.879C416.226 34.122 416.508 33.839 416.508 33.492V33.1268C416.508 32.8346 416.709 32.5972 416.983 32.515C417.894 32.2502 418.724 31.821 419.454 31.2458C419.691 31.0631 420.019 31.0449 420.247 31.2366L420.594 31.5197C420.867 31.7388 421.259 31.6932 421.478 31.4193L422.591 30.0313C422.809 29.7574 422.764 29.3648 422.49 29.1456L421.989 28.7439C421.77 28.5704 421.706 28.2782 421.797 28.0225C422.08 27.2464 422.235 26.4154 422.235 25.548C422.235 25.3654 422.217 25.1919 422.208 25.0093L423.502 24.7171C423.849 24.6257 424.059 24.2879 423.986 23.95ZM414.995 30.0496C412.505 30.0496 410.49 28.0316 410.49 25.5388C410.49 23.0461 412.505 21.0281 414.995 21.0281C417.484 21.0281 419.499 23.0461 419.499 25.5388C419.499 28.0316 417.484 30.0496 414.995 30.0496Z" fill="white"/>
<path d="M563.142 143.35C564.761 133.369 557.993 123.966 548.026 122.348C538.059 120.73 528.666 127.509 527.047 137.489C525.428 147.469 532.196 156.872 542.163 158.491C552.13 160.109 561.523 153.33 563.142 143.35Z" fill="#6842C2"/>
<path d="M555.102 142.823C556.407 137.292 552.987 131.751 547.463 130.446C541.94 129.141 536.404 132.567 535.098 138.097C533.793 143.628 537.212 149.17 542.736 150.475C548.26 151.78 553.796 148.354 555.102 142.823Z" fill="#6842C2" stroke="white" stroke-width="2" stroke-miterlimit="10" stroke-linecap="round" stroke-linejoin="round"/>
<path d="M545.081 133.695V140.424L541.534 143.976" fill="#6842C2"/>
<path d="M545.081 133.695V140.424L541.534 143.976" stroke="white" stroke-width="2" stroke-miterlimit="10" stroke-linecap="round" stroke-linejoin="round"/>
<path d="M545.081 130.134V131.12" stroke="white" stroke-width="2" stroke-miterlimit="10" stroke-linecap="round" stroke-linejoin="round"/>
<path d="M545.081 149.738V150.715" stroke="white" stroke-width="2" stroke-miterlimit="10" stroke-linecap="round" stroke-linejoin="round"/>
<path d="M555.358 140.424H554.373" stroke="white" stroke-width="2" stroke-miterlimit="10" stroke-linecap="round" stroke-linejoin="round"/>
<path d="M535.79 140.424H534.804" stroke="white" stroke-width="2" stroke-miterlimit="10" stroke-linecap="round" stroke-linejoin="round"/>
</svg>
