<svg width="1120" height="565" viewBox="0 0 1120 565" fill="none" xmlns="http://www.w3.org/2000/svg">
<path d="M1020.77 183.235C1020.77 188.877 1016.21 193.452 1010.57 193.452C1004.94 193.452 1000.37 188.877 1000.37 183.235C1000.37 177.592 1004.94 173.018 1010.57 173.018C1016.19 173.018 1020.77 177.592 1020.77 183.235Z" stroke="#04D361" stroke-width="3" stroke-miterlimit="10" stroke-linecap="round" stroke-linejoin="round"/>
<path d="M1017.95 190.283L1025.15 197.509" stroke="#04D361" stroke-width="3" stroke-miterlimit="10" stroke-linecap="round" stroke-linejoin="round"/>
<path d="M276.847 153.154L287.582 163.903" stroke="#04D361" stroke-width="3" stroke-miterlimit="10" stroke-linecap="round" stroke-linejoin="round"/>
<path d="M287.582 153.154L276.847 163.903" stroke="#04D361" stroke-width="3" stroke-miterlimit="10" stroke-linecap="round" stroke-linejoin="round"/>
<path d="M892.155 406.633L902.89 417.382" stroke="#04D361" stroke-width="3" stroke-miterlimit="10" stroke-linecap="round" stroke-linejoin="round"/>
<path d="M902.89 406.633L892.155 417.382" stroke="#04D361" stroke-width="3" stroke-miterlimit="10" stroke-linecap="round" stroke-linejoin="round"/>
<path d="M305.657 501.133V516.333" stroke="#04D361" stroke-width="3" stroke-miterlimit="10" stroke-linecap="round" stroke-linejoin="round"/>
<path d="M313.266 508.732H298.068" stroke="#04D361" stroke-width="3" stroke-miterlimit="10" stroke-linecap="round" stroke-linejoin="round"/>
<path d="M100.699 250.247C100.699 255.337 96.5748 259.485 91.4733 259.485C86.3896 259.485 82.248 255.355 82.248 250.247C82.248 245.156 86.3719 241.009 91.4733 241.009C96.5748 241.027 100.699 245.156 100.699 250.247Z" stroke="#04D361" stroke-width="3" stroke-miterlimit="10" stroke-linecap="round" stroke-linejoin="round"/>
<path d="M643.628 11.0563C643.628 16.1469 639.504 20.2941 634.403 20.2941C629.319 20.2941 625.177 16.1647 625.177 11.0563C625.177 5.96566 629.301 1.81839 634.403 1.81839C639.504 1.83619 643.628 5.96566 643.628 11.0563Z" stroke="#04D361" stroke-width="3" stroke-miterlimit="10" stroke-linecap="round" stroke-linejoin="round"/>
<path d="M778.971 553.585C778.971 558.676 774.847 562.823 769.746 562.823C764.662 562.823 760.521 558.693 760.521 553.585C760.521 548.494 764.644 544.347 769.746 544.347C774.847 544.365 778.971 548.494 778.971 553.585Z" stroke="#04D361" stroke-width="3" stroke-miterlimit="10" stroke-linecap="round" stroke-linejoin="round"/>
<path d="M4.14583 377.691C5.99109 377.691 7.48697 376.194 7.48697 374.346C7.48697 372.498 5.99109 371 4.14583 371C2.30057 371 0.804688 372.498 0.804688 374.346C0.804688 376.194 2.30057 377.691 4.14583 377.691Z" fill="#9871F5"/>
<path d="M27.484 377.691C29.3292 377.691 30.8251 376.194 30.8251 374.346C30.8251 372.498 29.3292 371 27.484 371C25.6387 371 24.1428 372.498 24.1428 374.346C24.1428 376.194 25.6387 377.691 27.484 377.691Z" fill="#9871F5"/>
<path d="M50.805 377.691C52.6503 377.691 54.1461 376.194 54.1461 374.346C54.1461 372.498 52.6503 371 50.805 371C48.9597 371 47.4639 372.498 47.4639 374.346C47.4639 376.194 48.9597 377.691 50.805 377.691Z" fill="#9871F5"/>
<path d="M74.1441 377.691C75.9894 377.691 77.4853 376.194 77.4853 374.346C77.4853 372.498 75.9894 371 74.1441 371C72.2989 371 70.803 372.498 70.803 374.346C70.803 376.194 72.2989 377.691 74.1441 377.691Z" fill="#9871F5"/>
<path d="M97.4649 377.691C99.3102 377.691 100.806 376.194 100.806 374.346C100.806 372.498 99.3102 371 97.4649 371C95.6197 371 94.1238 372.498 94.1238 374.346C94.1238 376.194 95.6197 377.691 97.4649 377.691Z" fill="#9871F5"/>
<path d="M120.803 377.691C122.649 377.691 124.144 376.194 124.144 374.346C124.144 372.498 122.649 371 120.803 371C118.958 371 117.462 372.498 117.462 374.346C117.462 376.194 118.958 377.691 120.803 377.691Z" fill="#9871F5"/>
<path d="M4.14534 401.044C5.9906 401.044 7.48648 399.546 7.48648 397.699C7.48648 395.851 5.9906 394.353 4.14534 394.353C2.30008 394.353 0.804199 395.851 0.804199 397.699C0.804199 399.546 2.30008 401.044 4.14534 401.044Z" fill="#9871F5"/>
<path d="M27.484 401.044C29.3292 401.044 30.8251 399.546 30.8251 397.699C30.8251 395.851 29.3292 394.353 27.484 394.353C25.6387 394.353 24.1428 395.851 24.1428 397.699C24.1428 399.546 25.6387 401.044 27.484 401.044Z" fill="#9871F5"/>
<path d="M50.8055 401.044C52.6508 401.044 54.1466 399.546 54.1466 397.699C54.1466 395.851 52.6508 394.353 50.8055 394.353C48.9602 394.353 47.4644 395.851 47.4644 397.699C47.4644 399.546 48.9602 401.044 50.8055 401.044Z" fill="#9871F5"/>
<path d="M74.1441 401.044C75.9894 401.044 77.4853 399.546 77.4853 397.699C77.4853 395.851 75.9894 394.353 74.1441 394.353C72.2989 394.353 70.803 395.851 70.803 397.699C70.803 399.546 72.2989 401.044 74.1441 401.044Z" fill="#9871F5"/>
<path d="M97.4649 401.044C99.3102 401.044 100.806 399.546 100.806 397.699C100.806 395.851 99.3102 394.353 97.4649 394.353C95.6197 394.353 94.1238 395.851 94.1238 397.699C94.1238 399.546 95.6197 401.044 97.4649 401.044Z" fill="#9871F5"/>
<path d="M120.803 401.044C122.649 401.044 124.144 399.546 124.144 397.699C124.144 395.851 122.649 394.353 120.803 394.353C118.958 394.353 117.462 395.851 117.462 397.699C117.462 399.546 118.958 401.044 120.803 401.044Z" fill="#9871F5"/>
<path d="M4.14534 424.415C5.9906 424.415 7.48648 422.917 7.48648 421.069C7.48648 419.221 5.9906 417.724 4.14534 417.724C2.30008 417.724 0.804199 419.221 0.804199 421.069C0.804199 422.917 2.30008 424.415 4.14534 424.415Z" fill="#9871F5"/>
<path d="M27.484 424.415C29.3292 424.415 30.8251 422.917 30.8251 421.069C30.8251 419.221 29.3292 417.724 27.484 417.724C25.6387 417.724 24.1428 419.221 24.1428 421.069C24.1428 422.917 25.6387 424.415 27.484 424.415Z" fill="#9871F5"/>
<path d="M50.8055 424.415C52.6508 424.415 54.1466 422.917 54.1466 421.069C54.1466 419.221 52.6508 417.724 50.8055 417.724C48.9602 417.724 47.4644 419.221 47.4644 421.069C47.4644 422.917 48.9602 424.415 50.8055 424.415Z" fill="#9871F5"/>
<path d="M74.1441 424.415C75.9894 424.415 77.4853 422.917 77.4853 421.069C77.4853 419.221 75.9894 417.724 74.1441 417.724C72.2989 417.724 70.803 419.221 70.803 421.069C70.803 422.917 72.2989 424.415 74.1441 424.415Z" fill="#9871F5"/>
<path d="M97.4649 424.415C99.3102 424.415 100.806 422.917 100.806 421.069C100.806 419.221 99.3102 417.724 97.4649 417.724C95.6197 417.724 94.1238 419.221 94.1238 421.069C94.1238 422.917 95.6197 424.415 97.4649 424.415Z" fill="#9871F5"/>
<path d="M120.803 424.415C122.649 424.415 124.144 422.917 124.144 421.069C124.144 419.221 122.649 417.724 120.803 417.724C118.958 417.724 117.462 419.221 117.462 421.069C117.462 422.917 118.958 424.415 120.803 424.415Z" fill="#9871F5"/>
<path d="M4.14534 447.768C5.9906 447.768 7.48648 446.27 7.48648 444.422C7.48648 442.574 5.9906 441.076 4.14534 441.076C2.30008 441.076 0.804199 442.574 0.804199 444.422C0.804199 446.27 2.30008 447.768 4.14534 447.768Z" fill="#9871F5"/>
<path d="M27.484 447.768C29.3292 447.768 30.8251 446.27 30.8251 444.422C30.8251 442.574 29.3292 441.076 27.484 441.076C25.6387 441.076 24.1428 442.574 24.1428 444.422C24.1428 446.27 25.6387 447.768 27.484 447.768Z" fill="#9871F5"/>
<path d="M50.8055 447.768C52.6508 447.768 54.1466 446.27 54.1466 444.422C54.1466 442.574 52.6508 441.076 50.8055 441.076C48.9602 441.076 47.4644 442.574 47.4644 444.422C47.4644 446.27 48.9602 447.768 50.8055 447.768Z" fill="#9871F5"/>
<path d="M74.1441 447.768C75.9894 447.768 77.4853 446.27 77.4853 444.422C77.4853 442.574 75.9894 441.076 74.1441 441.076C72.2989 441.076 70.803 442.574 70.803 444.422C70.803 446.27 72.2989 447.768 74.1441 447.768Z" fill="#9871F5"/>
<path d="M97.4649 447.768C99.3102 447.768 100.806 446.27 100.806 444.422C100.806 442.574 99.3102 441.076 97.4649 441.076C95.6197 441.076 94.1238 442.574 94.1238 444.422C94.1238 446.27 95.6197 447.768 97.4649 447.768Z" fill="#9871F5"/>
<path d="M120.803 447.768C122.649 447.768 124.144 446.27 124.144 444.422C124.144 442.574 122.649 441.076 120.803 441.076C118.958 441.076 117.462 442.574 117.462 444.422C117.462 446.27 118.958 447.768 120.803 447.768Z" fill="#9871F5"/>
<path d="M773.976 144.618C775.822 144.618 777.318 143.12 777.318 141.272C777.318 139.424 775.822 137.926 773.976 137.926C772.131 137.926 770.635 139.424 770.635 141.272C770.635 143.12 772.131 144.618 773.976 144.618Z" fill="#9871F5"/>
<path d="M797.297 144.618C799.142 144.618 800.638 143.12 800.638 141.272C800.638 139.424 799.142 137.926 797.297 137.926C795.452 137.926 793.956 139.424 793.956 141.272C793.956 143.12 795.452 144.618 797.297 144.618Z" fill="#9871F5"/>
<path d="M820.636 144.618C822.481 144.618 823.977 143.12 823.977 141.272C823.977 139.424 822.481 137.926 820.636 137.926C818.79 137.926 817.294 139.424 817.294 141.272C817.294 143.12 818.79 144.618 820.636 144.618Z" fill="#9871F5"/>
<path d="M773.976 167.988C775.821 167.988 777.317 166.49 777.317 164.642C777.317 162.795 775.821 161.297 773.976 161.297C772.131 161.297 770.635 162.795 770.635 164.642C770.635 166.49 772.131 167.988 773.976 167.988Z" fill="#9871F5"/>
<path d="M797.297 167.988C799.142 167.988 800.638 166.49 800.638 164.643C800.638 162.795 799.142 161.297 797.297 161.297C795.452 161.297 793.956 162.795 793.956 164.643C793.956 166.49 795.452 167.988 797.297 167.988Z" fill="#9871F5"/>
<path d="M820.636 167.988C822.481 167.988 823.977 166.49 823.977 164.643C823.977 162.795 822.481 161.297 820.636 161.297C818.79 161.297 817.294 162.795 817.294 164.643C817.294 166.49 818.79 167.988 820.636 167.988Z" fill="#9871F5"/>
<path d="M261.705 22.4333C263.55 22.4333 265.046 20.9353 265.046 19.0876C265.046 17.2398 263.55 15.7419 261.705 15.7419C259.859 15.7419 258.364 17.2398 258.364 19.0876C258.364 20.9353 259.859 22.4333 261.705 22.4333Z" fill="#9871F5"/>
<path d="M285.025 22.4333C286.87 22.4333 288.366 20.9353 288.366 19.0875C288.366 17.2398 286.87 15.7418 285.025 15.7418C283.18 15.7418 281.684 17.2398 281.684 19.0875C281.684 20.9353 283.18 22.4333 285.025 22.4333Z" fill="#9871F5"/>
<path d="M308.363 22.4333C310.209 22.4333 311.704 20.9353 311.704 19.0875C311.704 17.2398 310.209 15.7418 308.363 15.7418C306.518 15.7418 305.022 17.2398 305.022 19.0875C305.022 20.9353 306.518 22.4333 308.363 22.4333Z" fill="#9871F5"/>
<path d="M261.704 45.8039C263.55 45.8039 265.045 44.306 265.045 42.4582C265.045 40.6104 263.55 39.1125 261.704 39.1125C259.859 39.1125 258.363 40.6104 258.363 42.4582C258.363 44.306 259.859 45.8039 261.704 45.8039Z" fill="#9871F5"/>
<path d="M285.025 45.8039C286.87 45.8039 288.366 44.306 288.366 42.4582C288.366 40.6104 286.87 39.1125 285.025 39.1125C283.18 39.1125 281.684 40.6104 281.684 42.4582C281.684 44.306 283.18 45.8039 285.025 45.8039Z" fill="#9871F5"/>
<path d="M308.365 45.8039C310.21 45.8039 311.706 44.306 311.706 42.4582C311.706 40.6104 310.21 39.1125 308.365 39.1125C306.519 39.1125 305.023 40.6104 305.023 42.4582C305.023 44.306 306.519 45.8039 308.365 45.8039Z" fill="#9871F5"/>
<path d="M1116.66 377.691C1118.5 377.691 1120 376.194 1120 374.346C1120 372.498 1118.5 371 1116.66 371C1114.81 371 1113.32 372.498 1113.32 374.346C1113.32 376.194 1114.81 377.691 1116.66 377.691Z" fill="#9871F5"/>
<path d="M1116.66 401.062C1118.5 401.062 1120 399.564 1120 397.716C1120 395.869 1118.5 394.371 1116.66 394.371C1114.81 394.371 1113.32 395.869 1113.32 397.716C1113.32 399.564 1114.81 401.062 1116.66 401.062Z" fill="#9871F5"/>
<path d="M1116.66 424.415C1118.5 424.415 1120 422.917 1120 421.069C1120 419.221 1118.5 417.723 1116.66 417.723C1114.81 417.723 1113.32 419.221 1113.32 421.069C1113.32 422.917 1114.81 424.415 1116.66 424.415Z" fill="#9871F5"/>
<path d="M1116.66 447.786C1118.5 447.786 1120 446.288 1120 444.44C1120 442.592 1118.5 441.094 1116.66 441.094C1114.81 441.094 1113.32 442.592 1113.32 444.44C1113.32 446.288 1114.81 447.786 1116.66 447.786Z" fill="#9871F5"/>
<path d="M1116.66 471.138C1118.5 471.138 1120 469.64 1120 467.793C1120 465.945 1118.5 464.447 1116.66 464.447C1114.81 464.447 1113.32 465.945 1113.32 467.793C1113.32 469.64 1114.81 471.138 1116.66 471.138Z" fill="#9871F5"/>
<path d="M1116.66 494.509C1118.5 494.509 1120 493.011 1120 491.163C1120 489.315 1118.5 487.817 1116.66 487.817C1114.81 487.817 1113.32 489.315 1113.32 491.163C1113.32 493.011 1114.81 494.509 1116.66 494.509Z" fill="#9871F5"/>
<path d="M1116.66 517.862C1118.5 517.862 1120 516.364 1120 514.516C1120 512.668 1118.5 511.17 1116.66 511.17C1114.81 511.17 1113.32 512.668 1113.32 514.516C1113.32 516.364 1114.81 517.862 1116.66 517.862Z" fill="#9871F5"/>
<path d="M1093.32 377.691C1095.17 377.691 1096.66 376.194 1096.66 374.346C1096.66 372.498 1095.17 371 1093.32 371C1091.48 371 1089.98 372.498 1089.98 374.346C1089.98 376.194 1091.48 377.691 1093.32 377.691Z" fill="#9871F5"/>
<path d="M1093.32 401.062C1095.17 401.062 1096.66 399.564 1096.66 397.716C1096.66 395.869 1095.17 394.371 1093.32 394.371C1091.48 394.371 1089.98 395.869 1089.98 397.716C1089.98 399.564 1091.48 401.062 1093.32 401.062Z" fill="#9871F5"/>
<path d="M1093.32 424.415C1095.17 424.415 1096.66 422.917 1096.66 421.069C1096.66 419.221 1095.17 417.723 1093.32 417.723C1091.48 417.723 1089.98 419.221 1089.98 421.069C1089.98 422.917 1091.48 424.415 1093.32 424.415Z" fill="#9871F5"/>
<path d="M1093.32 447.786C1095.17 447.786 1096.66 446.288 1096.66 444.44C1096.66 442.592 1095.17 441.094 1093.32 441.094C1091.48 441.094 1089.98 442.592 1089.98 444.44C1089.98 446.288 1091.48 447.786 1093.32 447.786Z" fill="#9871F5"/>
<path d="M1093.32 471.138C1095.17 471.138 1096.66 469.64 1096.66 467.793C1096.66 465.945 1095.17 464.447 1093.32 464.447C1091.48 464.447 1089.98 465.945 1089.98 467.793C1089.98 469.64 1091.48 471.138 1093.32 471.138Z" fill="#9871F5"/>
<path d="M1093.32 494.509C1095.17 494.509 1096.66 493.011 1096.66 491.163C1096.66 489.315 1095.17 487.817 1093.32 487.817C1091.48 487.817 1089.98 489.315 1089.98 491.163C1089.98 493.011 1091.48 494.509 1093.32 494.509Z" fill="#9871F5"/>
<path d="M1093.32 517.862C1095.17 517.862 1096.66 516.364 1096.66 514.516C1096.66 512.668 1095.17 511.17 1093.32 511.17C1091.48 511.17 1089.98 512.668 1089.98 514.516C1089.98 516.364 1091.48 517.862 1093.32 517.862Z" fill="#9871F5"/>
<path d="M1070 377.691C1071.84 377.691 1073.34 376.194 1073.34 374.346C1073.34 372.498 1071.84 371 1070 371C1068.15 371 1066.66 372.498 1066.66 374.346C1066.66 376.194 1068.15 377.691 1070 377.691Z" fill="#9871F5"/>
<path d="M1070 401.062C1071.84 401.062 1073.34 399.564 1073.34 397.716C1073.34 395.869 1071.84 394.371 1070 394.371C1068.15 394.371 1066.66 395.869 1066.66 397.716C1066.66 399.564 1068.15 401.062 1070 401.062Z" fill="#9871F5"/>
<path d="M1070 424.415C1071.84 424.415 1073.34 422.917 1073.34 421.069C1073.34 419.221 1071.84 417.723 1070 417.723C1068.15 417.723 1066.66 419.221 1066.66 421.069C1066.66 422.917 1068.15 424.415 1070 424.415Z" fill="#9871F5"/>
<path d="M1070 447.786C1071.84 447.786 1073.34 446.288 1073.34 444.44C1073.34 442.592 1071.84 441.094 1070 441.094C1068.15 441.094 1066.66 442.592 1066.66 444.44C1066.66 446.288 1068.15 447.786 1070 447.786Z" fill="#9871F5"/>
<path d="M1070 471.138C1071.84 471.138 1073.34 469.64 1073.34 467.793C1073.34 465.945 1071.84 464.447 1070 464.447C1068.15 464.447 1066.66 465.945 1066.66 467.793C1066.66 469.64 1068.15 471.138 1070 471.138Z" fill="#9871F5"/>
<path d="M1070 494.509C1071.84 494.509 1073.34 493.011 1073.34 491.163C1073.34 489.315 1071.84 487.817 1070 487.817C1068.15 487.817 1066.66 489.315 1066.66 491.163C1066.66 493.011 1068.15 494.509 1070 494.509Z" fill="#9871F5"/>
<path d="M1070 517.862C1071.84 517.862 1073.34 516.364 1073.34 514.516C1073.34 512.668 1071.84 511.17 1070 511.17C1068.15 511.17 1066.66 512.668 1066.66 514.516C1066.66 516.364 1068.15 517.862 1070 517.862Z" fill="#9871F5"/>
<path d="M1046.66 377.691C1048.51 377.691 1050 376.194 1050 374.346C1050 372.498 1048.51 371 1046.66 371C1044.82 371 1043.32 372.498 1043.32 374.346C1043.32 376.194 1044.82 377.691 1046.66 377.691Z" fill="#9871F5"/>
<path d="M1046.66 401.062C1048.51 401.062 1050 399.564 1050 397.716C1050 395.869 1048.51 394.371 1046.66 394.371C1044.81 394.371 1043.32 395.869 1043.32 397.716C1043.32 399.564 1044.81 401.062 1046.66 401.062Z" fill="#9871F5"/>
<path d="M1046.66 424.415C1048.51 424.415 1050 422.917 1050 421.069C1050 419.221 1048.51 417.724 1046.66 417.724C1044.81 417.724 1043.32 419.221 1043.32 421.069C1043.32 422.917 1044.81 424.415 1046.66 424.415Z" fill="#9871F5"/>
<path d="M1046.66 447.786C1048.51 447.786 1050 446.288 1050 444.44C1050 442.592 1048.51 441.094 1046.66 441.094C1044.81 441.094 1043.32 442.592 1043.32 444.44C1043.32 446.288 1044.81 447.786 1046.66 447.786Z" fill="#9871F5"/>
<path d="M1046.66 471.138C1048.51 471.138 1050 469.64 1050 467.793C1050 465.945 1048.51 464.447 1046.66 464.447C1044.81 464.447 1043.32 465.945 1043.32 467.793C1043.32 469.64 1044.81 471.138 1046.66 471.138Z" fill="#9871F5"/>
<path d="M1046.66 494.509C1048.51 494.509 1050 493.011 1050 491.163C1050 489.315 1048.51 487.817 1046.66 487.817C1044.81 487.817 1043.32 489.315 1043.32 491.163C1043.32 493.011 1044.81 494.509 1046.66 494.509Z" fill="#9871F5"/>
<path d="M1046.66 517.862C1048.51 517.862 1050 516.364 1050 514.516C1050 512.668 1048.51 511.17 1046.66 511.17C1044.81 511.17 1043.32 512.668 1043.32 514.516C1043.32 516.364 1044.81 517.862 1046.66 517.862Z" fill="#9871F5"/>
</svg>
